<svg width="154" height="40" viewBox="0 0 154 40" fill="none" xmlns="http://www.w3.org/2000/svg">
<g clip-path="url(#clip0_2061_19452)">
<g clip-path="url(#clip1_2061_19452)">
<g clip-path="url(#clip2_2061_19452)">
<path d="M55.1955 6.58254V18.6202H52.9972L47.7602 11.0437H47.672V18.6202H45.127V6.58254H47.3605L52.5564 14.1531H52.6622V6.58254H55.1955ZM58.6224 18.6202V6.58254H66.7337V8.68092H61.1675V11.5493H66.3164V13.6476H61.1675V16.5218H66.7572V18.6202H58.6224ZM72.791 18.6202L69.3465 6.58254H72.1269L74.1193 14.9466H74.2193L76.4172 6.58254H78.7979L80.9903 14.9642H81.0959L83.089 6.58254H85.869L82.4248 18.6202H79.9441L77.6517 10.7499H77.5579L75.271 18.6202H72.791ZM93.0048 6.58254H95.8559L98.6007 11.7667H98.7179L101.463 6.58254H104.314L99.9227 14.3646V18.6202H97.3952V14.3646L93.0048 6.58254ZM117.362 12.6013C117.362 13.914 117.114 15.0309 116.616 15.9517C116.122 16.8725 115.448 17.5759 114.594 18.0617C113.743 18.5437 112.788 18.7847 111.726 18.7847C110.656 18.7847 109.696 18.5418 108.846 18.0559C107.995 17.57 107.323 16.8666 106.83 15.9458C106.336 15.0249 106.089 13.9102 106.089 12.6013C106.089 11.2886 106.336 10.1719 106.83 9.25106C107.323 8.33016 107.995 7.62878 108.846 7.14678C109.696 6.66091 110.656 6.41797 111.726 6.41797C112.788 6.41797 113.743 6.66091 114.594 7.14678C115.448 7.62878 116.122 8.33016 116.616 9.25106C117.114 10.1719 117.362 11.2886 117.362 12.6013ZM114.782 12.6013C114.782 11.7511 114.654 11.034 114.4 10.4501C114.149 9.86623 113.794 9.42347 113.336 9.12175C112.878 8.82002 112.341 8.66913 111.726 8.66913C111.11 8.66913 110.574 8.82002 110.115 9.12175C109.657 9.42347 109.3 9.86623 109.046 10.4501C108.794 11.034 108.669 11.7511 108.669 12.6013C108.669 13.4517 108.794 14.1688 109.046 14.7526C109.3 15.3364 109.657 15.7793 110.115 16.081C110.574 16.3827 111.11 16.5335 111.726 16.5335C112.341 16.5335 112.878 16.3827 113.336 16.081C113.794 15.7793 114.149 15.3364 114.4 14.7526C114.654 14.1688 114.782 13.4517 114.782 12.6013ZM120.572 18.6202V6.58254H125.321C126.23 6.58254 127.006 6.74516 127.648 7.07037C128.295 7.39168 128.787 7.84823 129.124 8.43989C129.465 9.02768 129.635 9.71927 129.635 10.5148C129.635 11.3141 129.463 12.0018 129.118 12.5778C128.773 13.15 128.274 13.5888 127.619 13.8944C126.969 14.2001 126.181 14.3529 125.257 14.3529H122.077V12.3075H124.845C125.331 12.3075 125.734 12.2409 126.056 12.1076C126.377 11.9744 126.616 11.7746 126.773 11.5081C126.934 11.2416 127.014 10.9105 127.014 10.5148C127.014 10.1151 126.934 9.77809 126.773 9.50375C126.616 9.22947 126.375 9.02182 126.05 8.88071C125.728 8.73575 125.323 8.66327 124.833 8.66327H123.117V18.6202H120.572ZM127.072 13.1421L130.064 18.6202H127.254L124.328 13.1421H127.072ZM132.758 18.6202V6.58254H135.303V11.8902H135.462L139.794 6.58254H142.844L138.377 11.9724L142.897 18.6202H139.852L136.555 13.6711L135.303 15.1993V18.6202H132.758Z" fill="white"/>
<path d="M44.5996 33.1029V25.5794H49.6691V26.8908H46.1902V28.6836H49.4083V29.995H46.1902V31.7915H49.6838V33.1029H44.5996ZM51.2441 25.5794H53.2058L55.2777 30.6343H55.3659L57.4377 25.5794H59.3995V33.1029H57.8566V28.206H57.7941L55.8471 33.0661H54.7964L52.8495 28.1877H52.787V33.1029H51.2441V25.5794ZM61.0204 33.1029V25.5794H63.9886C64.5593 25.5794 65.0454 25.6884 65.4471 25.9064C65.8487 26.1219 66.1548 26.4219 66.3655 26.8064C66.5785 27.1884 66.6851 27.6293 66.6851 28.1288C66.6851 28.6285 66.5773 29.0693 66.3617 29.4514C66.1462 29.8334 65.834 30.131 65.425 30.344C65.0184 30.5571 64.5262 30.6637 63.9482 30.6637H62.0563V29.3889H63.6911C63.9972 29.3889 64.2495 29.3363 64.4478 29.231C64.6486 29.1232 64.798 28.975 64.896 28.7864C64.9964 28.5954 65.0466 28.3762 65.0466 28.1288C65.0466 27.879 64.9964 27.6611 64.896 27.475C64.798 27.2864 64.6486 27.1407 64.4478 27.0378C64.247 26.9325 63.9923 26.8799 63.6837 26.8799H62.6111V33.1029H61.0204ZM69.6195 25.5794V33.1029H68.0286V25.5794H69.6195ZM71.2381 33.1029V25.5794H74.2064C74.7746 25.5794 75.2595 25.681 75.6615 25.8843C76.0657 26.0851 76.3726 26.3704 76.5836 26.7402C76.7967 27.1076 76.9029 27.5399 76.9029 28.037C76.9029 28.5366 76.7953 28.9664 76.5795 29.3264C76.3643 29.684 76.0519 29.9583 75.6429 30.1493C75.2367 30.3404 74.7443 30.4359 74.1664 30.4359H72.1788V29.1575H73.9091C74.2126 29.1575 74.465 29.1158 74.6657 29.0326C74.8664 28.9493 75.016 28.8244 75.114 28.6579C75.2146 28.4913 75.2643 28.2844 75.2643 28.037C75.2643 27.7873 75.2146 27.5766 75.114 27.4052C75.016 27.2337 74.8657 27.1039 74.6622 27.0158C74.4615 26.9252 74.2077 26.8799 73.9015 26.8799H72.8291V33.1029H71.2381ZM75.3015 29.6791L77.1712 33.1029H75.4153L73.5857 29.6791H75.3015ZM78.3374 33.1029V25.5794H83.4071V26.8908H79.9284V28.6836H83.1464V29.995H79.9284V31.7915H83.4215V33.1029H78.3374ZM88.9836 33.1029H87.2788L89.876 25.5794H91.9257L94.5195 33.1029H92.8146L90.9305 27.2986H90.8719L88.9836 33.1029ZM88.8767 30.1457H92.9029V31.3873H88.8767V30.1457ZM102.02 28.2134H100.411C100.382 28.0052 100.322 27.8203 100.231 27.6586C100.14 27.4946 100.024 27.355 99.8822 27.2399C99.7402 27.1248 99.576 27.0366 99.3898 26.9754C99.2057 26.9141 99.0064 26.8835 98.7912 26.8835C98.4015 26.8835 98.0622 26.9803 97.7733 27.1737C97.4843 27.3648 97.2602 27.6439 97.1008 28.0113C96.9415 28.3762 96.8622 28.8195 96.8622 29.3412C96.8622 29.8775 96.9415 30.3281 97.1008 30.693C97.2629 31.0579 97.4877 31.3335 97.7767 31.5196C98.0657 31.7057 98.4002 31.7988 98.7802 31.7988C98.9926 31.7988 99.1898 31.7706 99.3712 31.7143C99.5546 31.6579 99.7181 31.5759 99.8602 31.4681C100.002 31.3579 100.119 31.2245 100.213 31.0677C100.308 30.911 100.374 30.7322 100.411 30.5314L102.02 30.5388C101.978 30.8841 101.874 31.2171 101.708 31.5379C101.544 31.8564 101.322 32.1417 101.043 32.3939C100.766 32.6437 100.435 32.8421 100.051 32.989C99.6691 33.1335 99.2367 33.2057 98.754 33.2057C98.0829 33.2057 97.4829 33.0539 96.954 32.7502C96.4277 32.4466 96.0112 32.007 95.705 31.4314C95.4015 30.8559 95.2498 30.1591 95.2498 29.3412C95.2498 28.5207 95.4036 27.8228 95.7126 27.2472C96.0208 26.6717 96.4395 26.2333 96.9684 25.9321C97.4981 25.6284 98.0926 25.4766 98.754 25.4766C99.1898 25.4766 99.5939 25.5377 99.9664 25.6602C100.341 25.7827 100.673 25.9615 100.962 26.1966C101.251 26.4293 101.486 26.7146 101.667 27.0525C101.851 27.3905 101.968 27.7775 102.02 28.2134ZM104.626 33.1029H102.922L105.519 25.5794H107.569L110.162 33.1029H108.458L106.573 27.2986H106.515L104.626 33.1029ZM104.519 30.1457H108.546V31.3873H104.519V30.1457ZM114.045 33.1029H111.378V25.5794H114.067C114.824 25.5794 115.475 25.73 116.022 26.0313C116.568 26.33 116.988 26.7599 117.282 27.3207C117.578 27.8815 117.726 28.5526 117.726 29.3338C117.726 30.1175 117.578 30.791 117.282 31.3543C116.988 31.9175 116.566 32.3498 116.015 32.651C115.466 32.9523 114.809 33.1029 114.045 33.1029ZM112.969 31.74H113.979C114.449 31.74 114.845 31.6568 115.166 31.4902C115.489 31.3212 115.731 31.0604 115.893 30.7077C116.057 30.3526 116.139 29.8946 116.139 29.3338C116.139 28.7779 116.057 28.3236 115.893 27.9709C115.731 27.6182 115.491 27.3586 115.169 27.1921C114.848 27.0256 114.453 26.9423 113.983 26.9423H112.969V31.74ZM119.215 33.1029V25.5794H124.284V26.8908H120.806V28.6836H124.024V29.995H120.806V31.7915H124.299V33.1029H119.215ZM125.859 25.5794H127.821L129.893 30.6343H129.981L132.053 25.5794H134.015V33.1029H132.472V28.206H132.409L130.462 33.0661H129.412L127.465 28.1877H127.402V33.1029H125.859V25.5794ZM135.195 25.5794H136.977L138.692 28.8195H138.766L140.481 25.5794H142.263L139.519 30.4433V33.1029H137.939V30.4433L135.195 25.5794Z" fill="white"/>
<path d="M0.498047 3.77344H36.3601V21.7045C36.3601 31.6075 28.3321 39.6355 18.4291 39.6355C8.52605 39.6355 0.498047 31.6075 0.498047 21.7045V3.77344Z" fill="white"/>
<path d="M17.4846 5.66211H2.38477V20.7619H17.4846V5.66211Z" fill="black"/>
<path d="M2.38477 22.6484H17.4846V37.7482C9.14516 37.7482 2.38477 30.9878 2.38477 22.6484Z" fill="black"/>
<path d="M34.4728 5.66211H19.373V20.7619H34.4728V5.66211Z" fill="black"/>
<path d="M19.373 22.6484H34.4728C34.4728 30.9878 27.7124 37.7482 19.373 37.7482V22.6484Z" fill="black"/>
<path d="M36.3601 0H0.498047V1.88748H36.3601V0Z" fill="white"/>
<path d="M2.88052 0.521495L3.07238 1.14987H3.07951L3.27137 0.521495H3.50345L3.21398 1.37944H2.93791L2.64844 0.521495H2.88052ZM4.26326 0.521495V1.37944H4.05589V0.521495H4.26326ZM5.63228 0.832329H5.42282C5.42003 0.810826 5.4143 0.791419 5.40564 0.774101C5.39699 0.756784 5.38553 0.741984 5.37129 0.729695C5.35705 0.717412 5.34015 0.708053 5.3206 0.701632C5.30133 0.694929 5.27997 0.691577 5.25651 0.691577C5.2149 0.691577 5.17901 0.70177 5.14885 0.722157C5.11896 0.742543 5.09593 0.772005 5.07973 0.81055C5.06381 0.849088 5.05585 0.895729 5.05585 0.950467C5.05585 1.00744 5.06395 1.0552 5.08015 1.09374C5.09662 1.132 5.11966 1.1609 5.14926 1.18045C5.17915 1.19972 5.21448 1.20936 5.25525 1.20936C5.27815 1.20936 5.29896 1.20643 5.31767 1.20056C5.33666 1.19469 5.35328 1.18618 5.36752 1.175C5.38204 1.16356 5.39391 1.14974 5.40313 1.13354C5.41262 1.11706 5.41919 1.09849 5.42282 1.07782L5.63228 1.07907C5.62865 1.11706 5.61762 1.15448 5.59918 1.19134C5.58103 1.22821 5.55604 1.26186 5.5242 1.2923C5.49236 1.32247 5.45354 1.34649 5.40774 1.36436C5.36222 1.38223 5.30999 1.39117 5.25107 1.39117C5.17342 1.39117 5.10389 1.37414 5.04244 1.34006C4.98128 1.30571 4.93297 1.25572 4.8975 1.19009C4.86203 1.12446 4.84429 1.04458 4.84429 0.950467C4.84429 0.856074 4.86231 0.77606 4.89833 0.710426C4.93436 0.644797 4.98309 0.594946 5.04453 0.560873C5.10598 0.526801 5.17482 0.509766 5.25107 0.509766C5.30301 0.509766 5.35104 0.517027 5.39517 0.531549C5.4393 0.545793 5.47812 0.566738 5.51163 0.594387C5.54515 0.621756 5.57238 0.655409 5.59332 0.695343C5.61426 0.735281 5.62725 0.780943 5.63228 0.832329ZM6.18294 0.689901V0.521495H6.90809V0.689901H6.64794V1.37944H6.44351V0.689901H6.18294ZM8.24003 0.950467C8.24003 1.04486 8.22189 1.12487 8.18555 1.19051C8.14927 1.25614 8.1001 1.30599 8.0381 1.34006C7.97638 1.37414 7.90713 1.39117 7.83031 1.39117C7.75327 1.39117 7.68382 1.37399 7.6221 1.33964C7.56044 1.30529 7.51141 1.25544 7.47506 1.19009C7.43906 1.12446 7.42106 1.04458 7.42106 0.950467C7.42106 0.856074 7.43906 0.77606 7.47506 0.710426C7.51141 0.644797 7.56044 0.594946 7.6221 0.560873C7.68382 0.526801 7.75327 0.509766 7.83031 0.509766C7.90713 0.509766 7.97638 0.526801 8.0381 0.560873C8.1001 0.594946 8.14927 0.644797 8.18555 0.710426C8.22189 0.77606 8.24003 0.856074 8.24003 0.950467ZM8.02803 0.950467C8.02803 0.894612 8.0201 0.847412 8.00417 0.808874C7.98851 0.770329 7.96589 0.74115 7.93631 0.721322C7.907 0.701488 7.87169 0.691577 7.83031 0.691577C7.78927 0.691577 7.75396 0.701488 7.72437 0.721322C7.69472 0.74115 7.67196 0.770329 7.65603 0.808874C7.64044 0.847412 7.63258 0.894612 7.63258 0.950467C7.63258 1.00632 7.64044 1.05352 7.65603 1.09206C7.67196 1.1306 7.69472 1.15978 7.72437 1.17962C7.75396 1.19945 7.78927 1.20936 7.83031 1.20936C7.87169 1.20936 7.907 1.19945 7.93631 1.17962C7.96589 1.15978 7.98851 1.1306 8.00417 1.09206C8.0201 1.05352 8.02803 1.00632 8.02803 0.950467ZM8.8212 1.37944V0.521495H9.17555C9.23982 0.521495 9.29527 0.533085 9.34189 0.556266C9.38879 0.579166 9.425 0.612121 9.45038 0.65513C9.47582 0.69786 9.48851 0.74855 9.48851 0.807198C9.48851 0.866681 9.47555 0.917233 9.44955 0.958846C9.42355 1.00018 9.38672 1.03174 9.33893 1.05352C9.2912 1.07503 9.23465 1.08578 9.16927 1.08578H8.9452V0.922398H9.13079C9.16203 0.922398 9.18817 0.91835 9.20906 0.910253C9.23031 0.901874 9.24637 0.889308 9.25727 0.87255C9.26817 0.855515 9.27362 0.833729 9.27362 0.807198C9.27362 0.780667 9.26817 0.758743 9.25727 0.741426C9.24637 0.723833 9.23031 0.710708 9.20906 0.702046C9.18789 0.693115 9.16175 0.688644 9.13079 0.688644H9.02851V1.37944H8.8212ZM9.30417 0.987329L9.51782 1.37944H9.29162L9.08217 0.987329H9.30417ZM9.98155 0.521495H10.2132L10.3947 0.880508H10.4022L10.5835 0.521495H10.8152L10.5015 1.0929V1.37944H10.2953V1.0929L9.98155 0.521495ZM12.3929 1.37944H12.0758V0.521495H12.3924C12.4798 0.521495 12.5551 0.53867 12.6182 0.573022C12.6816 0.607094 12.7305 0.656247 12.7649 0.720481C12.7992 0.784439 12.8164 0.860957 12.8164 0.950046C12.8164 1.03942 12.7992 1.11622 12.7649 1.18045C12.7308 1.24469 12.682 1.29398 12.6187 1.32833C12.5553 1.3624 12.48 1.37944 12.3929 1.37944ZM12.2831 1.20265H12.3849C12.4329 1.20265 12.4735 1.19456 12.5068 1.17836C12.5403 1.16188 12.5656 1.13521 12.5827 1.09834C12.6 1.0612 12.6086 1.01177 12.6086 0.950046C12.6086 0.888329 12.6 0.839177 12.5827 0.802591C12.5653 0.765722 12.5398 0.739191 12.506 0.722998C12.4724 0.706515 12.4311 0.698281 12.382 0.698281H12.2831V1.20265ZM13.3975 1.37944V0.521495H13.9958V0.689901H13.6049V0.865846H13.9651V1.03467H13.6049V1.21103H13.9958V1.37944H13.3975ZM14.5857 0.521495H14.8424L15.0603 1.05268H15.0704L15.2882 0.521495H15.545V1.37944H15.3431V0.852439H15.336L15.1298 1.37399H15.0009L14.7947 0.849508H14.7876V1.37944H14.5857V0.521495ZM16.32 1.37944H16.0971L16.3866 0.521495H16.6627L16.9522 1.37944H16.7293L16.5278 0.73766H16.5211L16.32 1.37944ZM16.2902 1.04179H16.7561V1.1993H16.2902V1.04179ZM18.2348 0.521495V1.37944H18.0588L17.7174 0.884281H17.712V1.37944H17.5046V0.521495H17.6831L18.0207 1.01582H18.0278V0.521495H18.2348ZM19.1424 1.37944H18.8252V0.521495H19.1419C19.2293 0.521495 19.3046 0.53867 19.3677 0.573022C19.4311 0.607094 19.48 0.656247 19.5143 0.720481C19.5487 0.784439 19.5659 0.860957 19.5659 0.950046C19.5659 1.03942 19.5487 1.11622 19.5143 1.18045C19.4802 1.24469 19.4315 1.29398 19.3682 1.32833C19.3047 1.3624 19.2295 1.37944 19.1424 1.37944ZM19.0326 1.20265H19.1344C19.1824 1.20265 19.2231 1.19456 19.2563 1.17836C19.2898 1.16188 19.3151 1.13521 19.3321 1.09834C19.3494 1.0612 19.3581 1.01177 19.3581 0.950046C19.3581 0.888329 19.3494 0.839177 19.3321 0.802591C19.3148 0.765722 19.2893 0.739191 19.2555 0.722998C19.222 0.706515 19.1806 0.698281 19.1315 0.698281H19.0326V1.20265ZM20.6107 0.778708C20.608 0.747991 20.5955 0.724115 20.5735 0.707074C20.5517 0.689761 20.5205 0.681103 20.48 0.681103C20.4532 0.681103 20.4309 0.684594 20.413 0.691577C20.3951 0.698557 20.3818 0.708191 20.3728 0.720481C20.3639 0.732488 20.3593 0.746315 20.359 0.761957C20.3584 0.774798 20.3609 0.786108 20.3665 0.795888C20.3724 0.80566 20.3808 0.814322 20.3917 0.82186C20.4029 0.829122 20.4162 0.835543 20.4319 0.841129C20.4475 0.846715 20.4651 0.851605 20.4846 0.855791L20.5584 0.87255C20.6009 0.881764 20.6382 0.894053 20.6707 0.909412C20.7033 0.92477 20.7307 0.943067 20.7528 0.964295C20.7751 0.985515 20.792 1.00996 20.8035 1.0376C20.8149 1.06525 20.8208 1.09625 20.8211 1.1306C20.8208 1.18478 20.8071 1.23128 20.78 1.2701C20.7529 1.30892 20.714 1.33867 20.6631 1.35933C20.6126 1.38 20.5515 1.39033 20.48 1.39033C20.4083 1.39033 20.3457 1.37958 20.2924 1.35807C20.239 1.33657 20.1975 1.30389 20.168 1.26005C20.1384 1.2162 20.1231 1.16076 20.1223 1.09374H20.3209C20.3225 1.12138 20.33 1.14443 20.3431 1.16286C20.3562 1.18129 20.3742 1.19525 20.3971 1.20475C20.4203 1.21425 20.4471 1.21899 20.4775 1.21899C20.5055 1.21899 20.5292 1.21523 20.5487 1.20768C20.5686 1.20014 20.5838 1.18967 20.5944 1.17627C20.605 1.16286 20.6104 1.1475 20.6107 1.13018C20.6104 1.11398 20.6054 1.10016 20.5957 1.08871C20.5859 1.07698 20.5708 1.06693 20.5504 1.05855C20.5303 1.04989 20.5047 1.04193 20.4733 1.03467L20.3837 1.01372C20.3094 0.996688 20.2509 0.969177 20.2082 0.931198C20.1654 0.892936 20.1442 0.841267 20.1445 0.776198C20.1442 0.723136 20.1584 0.676635 20.1872 0.636697C20.216 0.596761 20.2558 0.565621 20.3066 0.543279C20.3574 0.520937 20.4154 0.509766 20.4804 0.509766C20.5469 0.509766 20.6046 0.521076 20.6535 0.543698C20.7027 0.56604 20.7407 0.597459 20.7678 0.637955C20.7949 0.67845 20.8088 0.72537 20.8093 0.778708H20.6107ZM22.0993 1.37944V0.521495H22.4538C22.518 0.521495 22.5734 0.534063 22.6201 0.559198C22.667 0.584054 22.7031 0.618824 22.7286 0.663508C22.754 0.707915 22.7667 0.759577 22.7667 0.818508C22.7667 0.877715 22.7537 0.929522 22.7278 0.973929C22.702 1.01805 22.6653 1.05227 22.6175 1.07656C22.5698 1.10086 22.5131 1.113 22.4475 1.113H22.2288V0.949633H22.4089C22.4402 0.949633 22.4663 0.944184 22.4873 0.933295C22.5085 0.922398 22.5246 0.907177 22.5355 0.887633C22.5464 0.867798 22.5518 0.844764 22.5518 0.818508C22.5518 0.791977 22.5464 0.769074 22.5355 0.749805C22.5246 0.730253 22.5085 0.715177 22.4873 0.704564C22.466 0.69395 22.44 0.688644 22.4089 0.688644H22.3067V1.37944H22.0993ZM23.329 1.37944V0.521495H23.6834C23.7476 0.521495 23.8031 0.533085 23.8497 0.556266C23.8967 0.579166 23.9328 0.612121 23.9582 0.65513C23.9836 0.69786 23.9963 0.74855 23.9963 0.807198C23.9963 0.866681 23.9833 0.917233 23.9573 0.958846C23.9314 1.00018 23.8945 1.03174 23.8468 1.05352C23.799 1.07503 23.7424 1.08578 23.6771 1.08578H23.453V0.922398H23.6386C23.6698 0.922398 23.696 0.91835 23.7169 0.910253C23.7382 0.901874 23.7542 0.889308 23.7651 0.87255C23.776 0.855515 23.7814 0.833729 23.7814 0.807198C23.7814 0.780667 23.776 0.758743 23.7651 0.741426C23.7542 0.723833 23.7382 0.710708 23.7169 0.702046C23.6957 0.693115 23.6695 0.688644 23.6386 0.688644H23.5364V1.37944H23.329ZM23.812 0.987329L24.0257 1.37944H23.7994L23.59 0.987329H23.812ZM24.5702 1.37944V0.521495H25.1684V0.689901H24.7775V0.865846H25.1378V1.03467H24.7775V1.21103H25.1684V1.37944H24.5702ZM25.7583 1.37944V0.521495H26.1127C26.1769 0.521495 26.2324 0.534063 26.279 0.559198C26.3259 0.584054 26.3621 0.618824 26.3875 0.663508C26.4129 0.707915 26.4256 0.759577 26.4256 0.818508C26.4256 0.877715 26.4126 0.929522 26.3867 0.973929C26.361 1.01805 26.3242 1.05227 26.2765 1.07656C26.2287 1.10086 26.172 1.113 26.1064 1.113H25.8878V0.949633H26.0679C26.0991 0.949633 26.1253 0.944184 26.1462 0.933295C26.1674 0.922398 26.1835 0.907177 26.1944 0.887633C26.2053 0.867798 26.2107 0.844764 26.2107 0.818508C26.2107 0.791977 26.2053 0.769074 26.1944 0.749805C26.1835 0.730253 26.1674 0.715177 26.1462 0.704564C26.125 0.69395 26.0989 0.688644 26.0679 0.688644H25.9657V1.37944H25.7583ZM27.0698 1.37944H26.8469L27.1364 0.521495H27.4125L27.702 1.37944H27.4791L27.2776 0.73766H27.2709L27.0698 1.37944ZM27.0401 1.04179H27.5059V1.1993H27.0401V1.04179ZM28.2544 1.37944V0.521495H28.6088C28.6731 0.521495 28.7285 0.533085 28.7751 0.556266C28.822 0.579166 28.8582 0.612121 28.8836 0.65513C28.9091 0.69786 28.9218 0.74855 28.9218 0.807198C28.9218 0.866681 28.9087 0.917233 28.8828 0.958846C28.8568 1.00018 28.82 1.03174 28.7722 1.05352C28.7244 1.07503 28.6679 1.08578 28.6025 1.08578H28.3784V0.922398H28.564C28.5953 0.922398 28.6214 0.91835 28.6423 0.910253C28.6635 0.901874 28.6796 0.889308 28.6905 0.87255C28.7014 0.855515 28.7069 0.833729 28.7069 0.807198C28.7069 0.780667 28.7014 0.758743 28.6905 0.741426C28.6796 0.723833 28.6635 0.710708 28.6423 0.702046C28.6211 0.693115 28.595 0.688644 28.564 0.688644H28.4618V1.37944H28.2544ZM28.7374 0.987329L28.9511 1.37944H28.7249L28.5154 0.987329H28.7374ZM29.6811 1.37944H29.4582L29.7478 0.521495H30.0238L30.3133 1.37944H30.0904L29.8889 0.73766H29.8822L29.6811 1.37944ZM29.6514 1.04179H30.1172V1.1993H29.6514V1.04179ZM30.7305 0.689901V0.521495H31.4557V0.689901H31.1955V1.37944H30.9911V0.689901H30.7305ZM32.2244 0.521495V1.37944H32.017V0.521495H32.2244ZM33.6244 0.950467C33.6244 1.04486 33.6062 1.12487 33.57 1.19051C33.5336 1.25614 33.4844 1.30599 33.4224 1.34006C33.3607 1.37414 33.2915 1.39117 33.2147 1.39117C33.1376 1.39117 33.0682 1.37399 33.0065 1.33964C32.9448 1.30529 32.8958 1.25544 32.8595 1.19009C32.8234 1.12446 32.8054 1.04458 32.8054 0.950467C32.8054 0.856074 32.8234 0.77606 32.8595 0.710426C32.8958 0.644797 32.9448 0.594946 33.0065 0.560873C33.0682 0.526801 33.1376 0.509766 33.2147 0.509766C33.2915 0.509766 33.3607 0.526801 33.4224 0.560873C33.4844 0.594946 33.5336 0.644797 33.57 0.710426C33.6062 0.77606 33.6244 0.856074 33.6244 0.950467ZM33.4124 0.950467C33.4124 0.894612 33.4044 0.847412 33.3885 0.808874C33.3729 0.770329 33.3503 0.74115 33.3206 0.721322C33.2913 0.701488 33.256 0.691577 33.2147 0.691577C33.1736 0.691577 33.1383 0.701488 33.1087 0.721322C33.0791 0.74115 33.0563 0.770329 33.0404 0.808874C33.0248 0.847412 33.017 0.894612 33.017 0.950467C33.017 1.00632 33.0248 1.05352 33.0404 1.09206C33.0563 1.1306 33.0791 1.15978 33.1087 1.17962C33.1383 1.19945 33.1736 1.20936 33.2147 1.20936C33.256 1.20936 33.2913 1.19945 33.3206 1.17962C33.3503 1.15978 33.3729 1.1306 33.3885 1.09206C33.4044 1.05352 33.4124 1.00632 33.4124 0.950467ZM34.9357 0.521495V1.37944H34.7598L34.4184 0.884281H34.4129V1.37944H34.2055V0.521495H34.384L34.7216 1.01582H34.7288V0.521495H34.9357Z" fill="black"/>
<path d="M11.4501 12.3484H8.46484V11.3782C8.61409 11.0051 10.0321 9.88554 9.88284 8.69141C10.8978 9.22879 10.8282 10.7065 10.6292 11.3782L11.1516 10.7065C11.5248 10.7811 11.4501 11.826 11.4501 12.3484Z" fill="white"/>
<path d="M11.823 12.7949H8.16602L8.76305 13.9891H11.2259L11.823 12.7949Z" fill="white"/>
<path d="M9.3591 14.8853L9.06055 14.4375H10.9263L10.5532 15.0346V17.4974H9.3591V14.8853Z" fill="white"/>
<path d="M11.6354 17.3145H8.44727V17.502H11.6354V17.3145Z" fill="white"/>
<path d="M27.0915 11.0463C27.6685 11.0463 28.1362 10.5786 28.1362 10.0017C28.1362 9.42474 27.6685 8.95703 27.0915 8.95703C26.5146 8.95703 26.0469 9.42474 26.0469 10.0017C26.0469 10.5786 26.5146 11.0463 27.0915 11.0463Z" fill="white"/>
<path d="M29.6772 12.7213C27.17 10.7712 25.0509 11.9087 24.3047 12.7213C25.9363 13.4773 26.8086 14.6282 27.0407 15.109C27.1367 14.5479 28.7652 13.3182 29.6772 12.7213Z" fill="white"/>
<path d="M26.9912 16.3931C26.5933 15.1594 24.504 13.9555 23.5091 13.5078L22.9121 14.652C25.4087 15.869 25.6007 16.6372 25.7476 17.1393H28.1932C28.432 15.9851 30.291 14.9671 31.1698 14.652L30.5729 13.5078C28.0259 14.5824 27.1239 15.8791 26.9912 16.3931Z" fill="white"/>
<path d="M12.4959 27.1495C12.5552 27.0508 12.5617 26.9816 12.5617 26.3591C12.5617 25.7301 12.565 25.6741 12.6177 25.6741C12.6507 25.6708 12.7166 25.7004 12.766 25.7399C12.8188 25.7762 12.8813 25.8519 12.9077 25.9046C12.9472 25.9837 12.9571 26.1549 12.9571 26.7609C12.9571 27.3669 12.9472 27.5382 12.9077 27.6172C12.8813 27.6732 12.8188 27.7457 12.766 27.7819C12.7166 27.8214 12.6277 27.8609 12.453 27.8971L12.4761 28.2199C12.4925 28.4866 12.4892 28.5426 12.4464 28.5558C12.4168 28.5657 12.2388 28.4339 11.5733 27.8477H9.81055L10.2949 27.3537H11.2471C12.0214 27.3537 12.2223 27.3439 12.3146 27.3044C12.3772 27.278 12.4596 27.2055 12.4959 27.1495Z" fill="white"/>
<path d="M8.97385 28.2902C9.20764 28.2967 9.28033 28.313 9.42847 28.3952C9.5273 28.4479 9.64288 28.5372 9.68571 28.5932C9.72854 28.646 9.78468 28.7644 9.81102 28.8566C9.84068 28.9455 9.86344 29.0937 9.86019 29.1859C9.86019 29.2748 9.8864 29.4002 9.91606 29.466C9.95226 29.5451 9.96571 29.634 9.95578 29.7624C9.94916 29.8612 9.90978 30.0094 9.87026 30.0918C9.83075 30.1707 9.72199 30.3286 9.62647 30.4372C9.47488 30.6151 9.46192 30.645 9.48164 30.7504C9.49157 30.813 9.53095 30.9051 9.56716 30.9544C9.60344 31.0038 9.67902 31.0696 9.73826 31.0993C9.7975 31.1289 9.97206 31.1782 10.1269 31.2111C10.2784 31.244 10.45 31.287 10.5061 31.3101C10.5587 31.3298 10.6608 31.4057 10.8684 31.6131L11.0893 31.5606C11.2112 31.531 11.3758 31.4783 11.4516 31.4421C11.5272 31.4059 11.6324 31.34 11.682 31.2939C11.7577 31.2248 11.7742 31.1818 11.7742 30.8986L10.8522 30.9478L10.9182 30.8393C10.9544 30.78 11.0132 30.6747 11.0462 30.6022C11.0792 30.5298 11.1255 30.3713 11.1485 30.256C11.1683 30.1375 11.2146 29.9304 11.2476 29.7954C11.2772 29.6571 11.3394 29.4722 11.3823 29.3832C11.4219 29.291 11.5179 29.1559 11.5903 29.0836C11.6825 28.9948 11.7782 28.9353 11.8901 28.9057C11.9954 28.8762 12.1271 28.8697 12.2685 28.8828C12.4168 28.896 12.519 28.926 12.6046 28.9852C12.6738 29.0313 12.7763 29.14 12.8356 29.2256C12.8916 29.3112 12.967 29.4525 13 29.5381C13.0296 29.6238 13.0856 29.8613 13.1218 30.0655C13.1713 30.3387 13.2179 30.5 13.4384 30.941L12.5292 30.8986V31.0535C12.5292 31.1718 12.5487 31.2279 12.6046 31.2838C12.6441 31.3233 12.7529 31.3891 12.8451 31.4286C12.934 31.4681 13.1417 31.5373 13.3064 31.5768C13.4676 31.6196 13.6454 31.682 13.7018 31.7216C13.7545 31.7578 13.834 31.8471 13.8735 31.9196C13.913 31.992 13.9455 32.0676 13.9456 32.0907C13.9456 32.1236 13.2043 32.1338 10.341 32.1338C6.92602 32.1338 6.73401 32.1302 6.74661 32.0745C6.75649 32.0416 6.77309 31.9722 6.78298 31.9196C6.79615 31.8636 6.83221 31.768 6.86515 31.7054C6.8948 31.6396 6.97092 31.5439 7.03352 31.4879C7.0929 31.4319 7.21817 31.3626 7.31033 31.333C7.39944 31.3033 7.60019 31.2541 7.75482 31.2212C7.9064 31.1882 8.07792 31.1322 8.13061 31.0959C8.1833 31.0596 8.25261 30.9905 8.2855 30.9478C8.3184 30.9016 8.35447 30.8129 8.36433 30.7504C8.38082 30.6483 8.36406 30.6122 8.22895 30.4541C8.14661 30.352 8.04137 30.1968 7.9953 30.1079C7.94916 30.0157 7.90275 29.8674 7.89288 29.7786C7.87978 29.6569 7.89337 29.5746 7.94275 29.466C7.98557 29.3673 8.00875 29.2453 8.00875 29.1037C8.00875 28.9491 8.02813 28.8469 8.07744 28.7481C8.11695 28.6724 8.19661 28.5637 8.25592 28.5077C8.31523 28.455 8.43709 28.3789 8.52937 28.3427C8.65771 28.2933 8.7533 28.2803 8.97385 28.2902ZM8.99675 24.6411C9.34488 24.5039 11.8226 24.504 12.0712 24.6479C12.1436 24.6973 12.2261 24.786 12.2524 24.8452C12.2886 24.9276 12.2982 25.1352 12.2982 25.8333C12.2982 26.6533 12.2948 26.7191 12.2322 26.8213C12.1959 26.8772 12.1171 26.9561 12.0612 26.9923C11.959 27.0549 11.8932 27.0583 10.1734 27.0583L9.77123 27.4045C9.53082 27.6087 9.34288 27.7465 9.30992 27.7399C9.2573 27.7333 9.25088 27.6938 9.26075 27.3944C9.26737 27.0786 9.26385 27.0584 9.20151 27.0583C9.16523 27.0583 9.10226 27.0417 9.06275 27.022C9.01992 27.0021 8.94771 26.946 8.89502 26.8967C8.83909 26.844 8.79282 26.7521 8.76978 26.6468C8.74675 26.548 8.74026 26.1789 8.74688 25.708C8.75675 25.0502 8.76633 24.918 8.81557 24.8291C8.84523 24.7698 8.92757 24.684 8.99675 24.6411ZM11.9426 24.7361C9.49123 24.7229 9.19771 24.7296 9.11868 24.7658C9.06268 24.7921 8.99682 24.8449 8.97047 24.8877C8.93095 24.9502 8.91778 25.1183 8.91123 25.6911C8.90461 26.0894 8.91144 26.4813 8.9213 26.564C8.93778 26.666 8.9773 26.7418 9.03985 26.8044C9.11226 26.8702 9.16819 26.8933 9.26682 26.8933C9.3393 26.8933 9.40854 26.9134 9.42171 26.9364C9.43157 26.9562 9.44185 27.0843 9.43854 27.2159C9.4353 27.3438 9.44164 27.4458 9.45475 27.4402C9.47116 27.4336 9.62282 27.3082 9.79413 27.16L10.1074 26.8933H11.9292L12.1338 26.696V24.9503L11.9426 24.7361Z" fill="white"/>
<path d="M12.2006 24.966V26.7454L11.9534 26.9764L10.1741 26.9266L9.3504 27.5691L9.30122 27.0256L8.87288 26.8282L8.83984 26.3999V24.966L9.2184 24.6698L11.9534 24.6367L12.2006 24.966ZM10.3525 25.9379C9.72322 25.9379 9.50267 25.948 9.47633 25.9776V25.9803C9.45322 26.0001 9.44288 26.04 9.45274 26.0598C9.46302 26.0926 9.67446 26.1022 10.3559 26.1022C10.9159 26.1022 11.2518 26.089 11.2617 26.0692C11.2714 26.0526 11.2585 26.0133 11.2355 25.9871C11.2025 25.941 11.0736 25.9346 10.3525 25.9379ZM10.5438 25.3513C9.59867 25.3447 9.46309 25.3516 9.43991 25.3944C9.42681 25.4239 9.42978 25.46 9.44936 25.4766C9.46915 25.4963 9.90426 25.506 10.5532 25.4995H10.56C11.6005 25.4929 11.6241 25.4931 11.6241 25.4274C11.6241 25.3618 11.598 25.3618 10.5552 25.352L10.5438 25.3513Z" fill="white"/>
<path d="M24.8593 25.1036C25.1413 24.9843 25.5591 24.8082 25.7889 24.7112C26.0187 24.6157 26.2081 24.5366 26.2096 24.5352C26.2126 24.5352 26.6259 24.7067 27.1273 24.9171C27.6301 25.126 28.0523 25.3036 28.0643 25.311C28.0807 25.32 28.0718 25.3289 28.027 25.3483C27.9942 25.3617 27.645 25.508 27.2511 25.6721C26.8572 25.8362 26.4648 26.0018 26.2216 26.1048L25.6397 25.8631C25.3204 25.7303 24.904 25.5572 24.7146 25.4781C24.5251 25.4005 24.3669 25.3319 24.3595 25.3274C24.3535 25.3229 24.5788 25.2215 24.8593 25.1036Z" fill="white"/>
<path d="M22.4574 31.9353C22.4469 31.8905 22.4395 31.7473 22.4395 31.5578V31.252H24.9536L25.0208 31.4116C25.0581 31.4996 25.1043 31.5921 25.1252 31.616C25.1461 31.6399 25.1804 31.6682 25.2028 31.6786C25.2371 31.6951 25.4251 31.6995 26.2144 31.6995C26.9008 31.6995 27.1947 31.6951 27.2171 31.6831C27.2365 31.6742 27.2693 31.6488 27.2917 31.6264C27.317 31.604 27.3603 31.5205 27.4678 31.252H29.9894V31.5578C29.9894 31.7473 29.9819 31.8905 29.9715 31.9353C29.9595 31.9845 29.9327 32.0263 29.8849 32.0755C29.8432 32.1188 29.7954 32.1502 29.7581 32.1606C29.7163 32.1725 28.6912 32.177 26.2144 32.177C23.7376 32.177 22.7125 32.1725 22.6708 32.1606C22.6335 32.1502 22.5857 32.1188 22.5439 32.0755C22.4961 32.0263 22.4693 31.9845 22.4574 31.9353Z" fill="white"/>
<path d="M28.6324 26.9412C29.057 26.9412 29.1484 26.9461 29.1961 26.9654C29.2259 26.9773 29.2707 27.0057 29.2931 27.028C29.317 27.0504 29.3488 27.0938 29.3652 27.1237C29.3919 27.1788 29.3935 27.2428 29.3935 30.776H28.3267C27.3419 30.776 27.2552 30.7777 27.206 30.8016C27.1747 30.8166 27.1386 30.8447 27.1252 30.8656C27.1102 30.8867 27.0702 30.9751 26.9689 31.2239H25.4542L25.3869 31.0548C25.3468 30.9553 25.3038 30.8721 25.2785 30.8495C25.2561 30.827 25.223 30.8011 25.205 30.7922C25.1783 30.7803 24.8587 30.776 23.0371 30.776V28.9785C23.0371 27.2408 23.0386 27.1788 23.0654 27.1237C23.0818 27.0938 23.1135 27.0503 23.1375 27.0294C23.1599 27.007 23.1999 26.9786 23.2237 26.9668C23.2624 26.9459 23.3446 26.9426 24.3052 26.9412V27.2476C24.3052 27.4727 24.3112 27.5667 24.3261 27.6026C24.3366 27.6279 24.3619 27.6655 24.3814 27.6833C24.401 27.7013 24.5008 27.755 24.6036 27.8012C24.7066 27.8459 24.8708 27.9112 24.9693 27.944C25.0677 27.9768 25.2152 28.0188 25.2973 28.0383C25.3794 28.0577 25.5113 28.0843 25.5889 28.0962C25.6666 28.1096 25.8377 28.1275 25.9688 28.1379C26.1507 28.1514 26.2659 28.1514 26.4537 28.1379C26.5895 28.129 26.7838 28.1067 26.8868 28.0888C26.9897 28.0709 27.154 28.0348 27.2525 28.0079C27.3509 27.9811 27.4985 27.9334 27.5804 27.9036C27.6625 27.8723 27.7938 27.819 27.8714 27.7817C27.9489 27.7459 28.0297 27.7013 28.0492 27.6833C28.0686 27.6655 28.094 27.6279 28.1044 27.6026C28.1193 27.5667 28.1253 27.4724 28.1253 26.9412H28.6324ZM23.9321 29.7315V30.2089H24.5444V29.7315H23.9321ZM25.0959 29.7315V30.2089H28.4984V29.7315H25.0959ZM23.9321 28.6572V29.1347H24.5444V28.6572H23.9321ZM25.0959 28.6572V29.1347H28.4984V28.6572H25.0959ZM27.637 26.0312C27.643 26.0312 27.6478 26.3299 27.6478 27.3594L27.5704 27.3951C27.5271 27.4145 27.4315 27.4519 27.3568 27.4772C27.2838 27.5041 27.1451 27.5443 27.0511 27.5681C26.9571 27.5906 26.8016 27.6219 26.7076 27.6369C26.5808 27.6563 26.4525 27.6638 26.2153 27.6638C25.9826 27.6638 25.8468 27.6563 25.723 27.6369C25.629 27.6219 25.4735 27.5906 25.3795 27.5681C25.2855 27.5443 25.1306 27.4981 25.0367 27.4638C24.9427 27.428 24.8469 27.3907 24.7828 27.3594L24.7861 26.694C24.7876 26.0921 24.7902 26.0288 24.811 26.036C24.8245 26.0405 24.9857 26.1072 25.1707 26.1848C25.3557 26.2624 25.653 26.3877 25.8321 26.4623C26.0572 26.5563 26.1735 26.5984 26.2153 26.5984C26.2586 26.5984 26.454 26.5237 26.9508 26.3148C27.3182 26.1607 27.6255 26.033 27.637 26.0312Z" fill="white"/>
</g>
</g>
</g>
<defs>
<clipPath id="clip0_2061_19452">
<rect width="142.756" height="40" fill="white" transform="translate(0.5)"/>
</clipPath>
<clipPath id="clip1_2061_19452">
<rect width="142.756" height="40" fill="white" transform="translate(0.5)"/>
</clipPath>
<clipPath id="clip2_2061_19452">
<rect width="142.759" height="40" fill="white" transform="translate(0.498047)"/>
</clipPath>
</defs>
</svg>
