<svg width="207" height="58" viewBox="0 0 207 58" fill="none" xmlns="http://www.w3.org/2000/svg">
<path d="M79.3105 9.54545V27H76.123L68.5293 16.0142H68.4014V27H64.7111V9.54545H67.9497L75.4838 20.5227H75.6372V9.54545H79.3105ZM84.2795 27V9.54545H96.0409V12.5881H87.9699V16.7472H95.4358V19.7898H87.9699V23.9574H96.075V27H84.2795ZM104.824 27L99.8295 9.54545H103.861L106.75 21.6733H106.895L110.082 9.54545H113.534L116.713 21.6989H116.866L119.756 9.54545H123.787L118.793 27H115.196L111.872 15.5881H111.736L108.42 27H104.824ZM134.134 9.54545H138.268L142.248 17.0625H142.418L146.398 9.54545H150.532L144.165 20.8295V27H140.5V20.8295L134.134 9.54545ZM169.452 18.2727C169.452 20.1761 169.092 21.7955 168.37 23.1307C167.654 24.4659 166.677 25.4858 165.438 26.1903C164.205 26.8892 162.819 27.2386 161.279 27.2386C159.728 27.2386 158.336 26.8864 157.103 26.1818C155.87 25.4773 154.896 24.4574 154.18 23.1222C153.464 21.7869 153.106 20.1705 153.106 18.2727C153.106 16.3693 153.464 14.75 154.18 13.4148C154.896 12.0795 155.87 11.0625 157.103 10.3636C158.336 9.65909 159.728 9.30682 161.279 9.30682C162.819 9.30682 164.205 9.65909 165.438 10.3636C166.677 11.0625 167.654 12.0795 168.37 13.4148C169.092 14.75 169.452 16.3693 169.452 18.2727ZM165.711 18.2727C165.711 17.0398 165.526 16 165.157 15.1534C164.793 14.3068 164.279 13.6648 163.614 13.2273C162.95 12.7898 162.171 12.571 161.279 12.571C160.387 12.571 159.609 12.7898 158.944 13.2273C158.279 13.6648 157.762 14.3068 157.393 15.1534C157.029 16 156.847 17.0398 156.847 18.2727C156.847 19.5057 157.029 20.5455 157.393 21.392C157.762 22.2386 158.279 22.8807 158.944 23.3182C159.609 23.7557 160.387 23.9744 161.279 23.9744C162.171 23.9744 162.95 23.7557 163.614 23.3182C164.279 22.8807 164.793 22.2386 165.157 21.392C165.526 20.5455 165.711 19.5057 165.711 18.2727ZM174.106 27V9.54545H180.992C182.311 9.54545 183.436 9.78125 184.367 10.2528C185.305 10.7187 186.018 11.3807 186.507 12.2386C187.001 13.0909 187.248 14.0937 187.248 15.2472C187.248 16.4062 186.998 17.4034 186.498 18.2386C185.998 19.0682 185.274 19.7045 184.325 20.1477C183.382 20.5909 182.24 20.8125 180.899 20.8125H176.288V17.8466H180.302C181.007 17.8466 181.592 17.75 182.058 17.5568C182.524 17.3636 182.87 17.0739 183.098 16.6875C183.331 16.3011 183.447 15.821 183.447 15.2472C183.447 14.6676 183.331 14.179 183.098 13.7812C182.87 13.3835 182.521 13.0824 182.049 12.8778C181.583 12.6676 180.995 12.5625 180.285 12.5625H177.796V27H174.106ZM183.532 19.0568L187.87 27H183.796L179.552 19.0568H183.532ZM191.776 27V9.54545H195.466V17.2415H195.697L201.978 9.54545H206.401L199.924 17.3608L206.478 27H202.063L197.282 19.8239L195.466 22.0398V27H191.776Z" fill="#1E3A8A"/>
<path d="M63.9482 48V37.0909H71.299V38.9925H66.2546V41.592H70.9208V43.4936H66.2546V46.0984H71.3203V48H63.9482ZM73.5827 37.0909H76.4272L79.4314 44.4205H79.5593L82.5635 37.0909H85.408V48H83.1708V40.8995H83.0802L80.2571 47.9467H78.7336L75.9105 40.8729H75.8199V48H73.5827V37.0909ZM87.7583 48V37.0909H92.0623C92.8897 37.0909 93.5946 37.2489 94.177 37.565C94.7594 37.8775 95.2033 38.3125 95.5087 38.87C95.8176 39.424 95.9721 40.0632 95.9721 40.7876C95.9721 41.5121 95.8158 42.1513 95.5033 42.7053C95.1908 43.2592 94.7381 43.6907 94.145 43.9996C93.5555 44.3086 92.8418 44.4631 92.0037 44.4631H89.2604V42.6147H91.6308C92.0747 42.6147 92.4405 42.5384 92.7281 42.3857C93.0193 42.2294 93.2359 42.0146 93.378 41.7411C93.5236 41.4641 93.5964 41.1463 93.5964 40.7876C93.5964 40.4254 93.5236 40.1094 93.378 39.8395C93.2359 39.5661 93.0193 39.3548 92.7281 39.2056C92.4369 39.0529 92.0676 38.9766 91.6202 38.9766H90.0648V48H87.7583ZM100.227 37.0909V48H97.9202V37.0909H100.227ZM102.574 48V37.0909H106.878C107.702 37.0909 108.405 37.2383 108.988 37.533C109.574 37.8242 110.019 38.2379 110.325 38.7741C110.634 39.3068 110.788 39.9336 110.788 40.6545C110.788 41.3789 110.632 42.0021 110.319 42.5241C110.007 43.0426 109.554 43.4403 108.961 43.7173C108.372 43.9943 107.658 44.1328 106.82 44.1328H103.938V42.2791H106.447C106.887 42.2791 107.253 42.2187 107.544 42.098C107.835 41.9773 108.052 41.7962 108.194 41.5547C108.34 41.3132 108.412 41.0131 108.412 40.6545C108.412 40.2923 108.34 39.9869 108.194 39.7383C108.052 39.4897 107.834 39.3015 107.539 39.1737C107.248 39.0423 106.88 38.9766 106.436 38.9766H104.881V48H102.574ZM108.466 43.0355L111.177 48H108.631L105.978 43.0355H108.466ZM112.868 48V37.0909H120.219V38.9925H115.175V41.592H119.841V43.4936H115.175V46.0984H120.24V48H112.868ZM128.305 48H125.833L129.599 37.0909H132.571L136.332 48H133.86L131.128 39.5838H131.043L128.305 48ZM128.15 43.712H133.988V45.5124H128.15V43.712ZM147.208 40.9102H144.875C144.832 40.6083 144.745 40.3402 144.614 40.1058C144.482 39.8679 144.314 39.6655 144.108 39.4986C143.902 39.3317 143.664 39.2038 143.394 39.1151C143.127 39.0263 142.838 38.9819 142.526 38.9819C141.961 38.9819 141.469 39.1222 141.05 39.4027C140.631 39.6797 140.306 40.0845 140.075 40.6172C139.844 41.1463 139.729 41.7891 139.729 42.5455C139.729 43.3232 139.844 43.9766 140.075 44.5057C140.31 45.0348 140.636 45.4343 141.055 45.7042C141.474 45.9741 141.959 46.109 142.51 46.109C142.818 46.109 143.104 46.0682 143.367 45.9865C143.633 45.9048 143.87 45.7859 144.076 45.6296C144.282 45.4698 144.452 45.2763 144.587 45.049C144.725 44.8217 144.821 44.5625 144.875 44.2713L147.208 44.282C147.147 44.7827 146.996 45.2656 146.755 45.7308C146.517 46.1925 146.196 46.6062 145.791 46.9719C145.39 47.3342 144.91 47.6218 144.353 47.8349C143.799 48.0444 143.172 48.1491 142.472 48.1491C141.499 48.1491 140.629 47.929 139.862 47.4886C139.099 47.0483 138.495 46.4109 138.051 45.5763C137.611 44.7418 137.391 43.7315 137.391 42.5455C137.391 41.3558 137.614 40.3438 138.062 39.5092C138.509 38.6747 139.116 38.0391 139.883 37.6023C140.651 37.1619 141.513 36.9418 142.472 36.9418C143.104 36.9418 143.69 37.0305 144.23 37.2081C144.773 37.3857 145.255 37.6449 145.674 37.9858C146.093 38.3232 146.434 38.7369 146.696 39.2269C146.963 39.717 147.133 40.2781 147.208 40.9102ZM150.987 48H148.515L152.281 37.0909H155.254L159.014 48H156.543L153.81 39.5838H153.725L150.987 48ZM150.832 43.712H156.67V45.5124H150.832V43.712ZM164.644 48H160.777V37.0909H164.676C165.774 37.0909 166.718 37.3093 167.51 37.7461C168.302 38.1793 168.911 38.8026 169.337 39.6158C169.767 40.429 169.982 41.402 169.982 42.5348C169.982 43.6712 169.767 44.6477 169.337 45.4645C168.911 46.2812 168.299 46.908 167.5 47.3448C166.704 47.7816 165.752 48 164.644 48ZM163.084 46.0238H164.549C165.23 46.0238 165.804 45.9031 166.269 45.6616C166.738 45.4165 167.089 45.0384 167.324 44.527C167.562 44.0121 167.681 43.348 167.681 42.5348C167.681 41.7287 167.562 41.07 167.324 40.5586C167.089 40.0472 166.74 39.6708 166.274 39.4293C165.809 39.1879 165.236 39.0671 164.554 39.0671H163.084V46.0238ZM172.14 48V37.0909H179.491V38.9925H174.447V41.592H179.113V43.4936H174.447V46.0984H179.512V48H172.14ZM181.775 37.0909H184.619L187.624 44.4205H187.751L190.756 37.0909H193.6V48H191.363V40.8995H191.272L188.449 47.9467H186.926L184.103 40.8729H184.012V48H181.775V37.0909ZM195.311 37.0909H197.895L200.382 41.7891H200.489L202.976 37.0909H205.56L201.581 44.1435V48H199.29V44.1435L195.311 37.0909Z" fill="#1E3A8A"/>
<path d="M0 5.47363H52V31.4736C52 45.833 40.3594 57.4736 26 57.4736C11.6406 57.4736 0 45.833 0 31.4736V5.47363Z" fill="#1E3A8A"/>
<rect x="2.73682" y="8.21021" width="21.8947" height="21.8947" fill="white"/>
<path d="M2.73682 32.8423H24.6316V54.737C12.5394 54.737 2.73682 44.9344 2.73682 32.8423Z" fill="white"/>
<rect x="27.3687" y="8.21021" width="21.8947" height="21.8947" fill="white"/>
<path d="M27.3687 32.8423H49.2634C49.2634 44.9344 39.4608 54.737 27.3687 54.737V32.8423Z" fill="white"/>
<rect width="52" height="2.73684" fill="#1E3A8A"/>
<path d="M3.45571 0.755981L3.73391 1.66713H3.74424L4.02244 0.755981H4.35896L3.93922 2H3.53893L3.11919 0.755981H3.45571ZM5.46068 0.755981V2H5.16V0.755981H5.46068ZM7.44576 1.20669H7.14205C7.138 1.17551 7.12969 1.14737 7.11714 1.12226C7.10459 1.09715 7.08798 1.07569 7.06733 1.05787C7.04668 1.04006 7.02218 1.02649 6.99383 1.01718C6.96589 1.00746 6.93491 1.0026 6.90089 1.0026C6.84056 1.0026 6.78852 1.01738 6.74479 1.04694C6.70145 1.0765 6.66805 1.11922 6.64456 1.17511C6.62148 1.23099 6.60994 1.29862 6.60994 1.37799C6.60994 1.4606 6.62168 1.52985 6.64517 1.58573C6.66906 1.64121 6.70247 1.68312 6.74539 1.71147C6.78872 1.73941 6.83995 1.75338 6.89907 1.75338C6.93228 1.75338 6.96245 1.74913 6.98958 1.74063C7.01712 1.73212 7.04121 1.71977 7.06186 1.70357C7.08292 1.68697 7.10013 1.66693 7.1135 1.64344C7.12726 1.61955 7.13678 1.59262 7.14205 1.56265L7.44576 1.56447C7.4405 1.61955 7.4245 1.67381 7.39777 1.72726C7.37145 1.78072 7.33521 1.82951 7.28904 1.87365C7.24288 1.91739 7.18659 1.95222 7.12018 1.97813C7.05417 2.00405 6.97844 2.01701 6.893 2.01701C6.78042 2.01701 6.67959 1.99231 6.5905 1.9429C6.50181 1.89309 6.43176 1.82061 6.38033 1.72544C6.3289 1.63028 6.30318 1.51446 6.30318 1.37799C6.30318 1.24112 6.3293 1.1251 6.38154 1.02993C6.43378 0.934768 6.50444 0.862484 6.59353 0.813079C6.68262 0.763675 6.78245 0.738973 6.893 0.738973C6.96832 0.738973 7.03797 0.749502 7.10195 0.770559C7.16594 0.791212 7.22223 0.821583 7.27082 0.861674C7.31942 0.901359 7.3589 0.950156 7.38927 1.00806C7.41964 1.06597 7.43847 1.13218 7.44576 1.20669ZM8.24422 1.00017V0.755981H9.29569V1.00017H8.91847V2H8.62204V1.00017H8.24422ZM11.227 1.37799C11.227 1.51486 11.2007 1.63088 11.148 1.72605C11.0954 1.82121 11.0241 1.8935 10.9342 1.9429C10.8447 1.99231 10.7443 2.01701 10.6329 2.01701C10.5212 2.01701 10.4205 1.9921 10.331 1.94229C10.2416 1.89248 10.1705 1.8202 10.1178 1.72544C10.0656 1.63028 10.0395 1.51446 10.0395 1.37799C10.0395 1.24112 10.0656 1.1251 10.1178 1.02993C10.1705 0.934768 10.2416 0.862484 10.331 0.813079C10.4205 0.763675 10.5212 0.738973 10.6329 0.738973C10.7443 0.738973 10.8447 0.763675 10.9342 0.813079C11.0241 0.862484 11.0954 0.934768 11.148 1.02993C11.2007 1.1251 11.227 1.24112 11.227 1.37799ZM10.9196 1.37799C10.9196 1.297 10.9081 1.22856 10.885 1.17268C10.8623 1.11679 10.8295 1.07448 10.7866 1.04573C10.7441 1.01697 10.6929 1.0026 10.6329 1.0026C10.5734 1.0026 10.5222 1.01697 10.4793 1.04573C10.4363 1.07448 10.4033 1.11679 10.3802 1.17268C10.3576 1.22856 10.3462 1.297 10.3462 1.37799C10.3462 1.45898 10.3576 1.52742 10.3802 1.5833C10.4033 1.63919 10.4363 1.6815 10.4793 1.71026C10.5222 1.73901 10.5734 1.75338 10.6329 1.75338C10.6929 1.75338 10.7441 1.73901 10.7866 1.71026C10.8295 1.6815 10.8623 1.63919 10.885 1.5833C10.9081 1.52742 10.9196 1.45898 10.9196 1.37799ZM12.0697 2V0.755981H12.5835C12.6767 0.755981 12.7571 0.772786 12.8247 0.806398C12.8927 0.839604 12.9452 0.887388 12.982 0.949751C13.0189 1.01171 13.0373 1.08521 13.0373 1.17025C13.0373 1.2565 13.0185 1.3298 12.9808 1.39014C12.9431 1.45007 12.8897 1.49583 12.8204 1.52742C12.7512 1.5586 12.6692 1.57419 12.5744 1.57419H12.2495V1.33729H12.5186C12.5639 1.33729 12.6018 1.33142 12.6321 1.31968C12.6629 1.30753 12.6862 1.28931 12.702 1.26501C12.7178 1.24031 12.7257 1.20872 12.7257 1.17025C12.7257 1.13178 12.7178 1.09999 12.702 1.07488C12.6862 1.04937 12.6629 1.03034 12.6321 1.01778C12.6014 1.00483 12.5635 0.998346 12.5186 0.998346H12.3703V2H12.0697ZM12.77 1.43144L13.0798 2H12.7518L12.4481 1.43144H12.77ZM13.7522 0.755981H14.0881L14.3512 1.27655H14.3621L14.6251 0.755981H14.961L14.5061 1.58452V2H14.2072V1.58452L13.7522 0.755981ZM17.2486 2H16.7888V0.755981H17.248C17.3747 0.755981 17.4839 0.780885 17.5754 0.830695C17.6673 0.880099 17.7382 0.951371 17.788 1.04451C17.8378 1.13725 17.8627 1.2482 17.8627 1.37738C17.8627 1.50697 17.8378 1.61833 17.788 1.71147C17.7386 1.80461 17.6679 1.87608 17.576 1.92589C17.4841 1.9753 17.3749 2 17.2486 2ZM17.0895 1.74366H17.2371C17.3067 1.74366 17.3656 1.73192 17.4138 1.70843C17.4624 1.68454 17.4991 1.64587 17.5238 1.59241C17.5489 1.53855 17.5614 1.46688 17.5614 1.37738C17.5614 1.28789 17.5489 1.21662 17.5238 1.16357C17.4987 1.11011 17.4616 1.07164 17.4126 1.04816C17.364 1.02426 17.3041 1.01232 17.2328 1.01232H17.0895V1.74366ZM18.7054 2V0.755981H19.5728V1.00017H19.006V1.25529H19.5284V1.50008H19.006V1.75581H19.5728V2H18.7054ZM20.4282 0.755981H20.8005L21.1164 1.5262H21.131L21.4468 0.755981H21.8192V2H21.5264V1.23585H21.5161L21.2172 1.9921H21.0302L20.7313 1.2316H20.721V2H20.4282V0.755981ZM22.9429 2H22.6198L23.0395 0.755981H23.4398L23.8596 2H23.5364L23.2442 1.06942H23.2345L22.9429 2ZM22.8998 1.51041H23.5753V1.7388H22.8998V1.51041ZM25.7194 0.755981V2H25.4642L24.9692 1.28202H24.9613V2H24.6606V0.755981H24.9194L25.409 1.47275H25.4193V0.755981H25.7194ZM27.0354 2H26.5755V0.755981H27.0347C27.1615 0.755981 27.2706 0.780885 27.3621 0.830695C27.4541 0.880099 27.5249 0.951371 27.5747 1.04451C27.6246 1.13725 27.6495 1.2482 27.6495 1.37738C27.6495 1.50697 27.6246 1.61833 27.5747 1.71147C27.5253 1.80461 27.4547 1.87608 27.3628 1.92589C27.2708 1.9753 27.1617 2 27.0354 2ZM26.8762 1.74366H27.0238C27.0935 1.74366 27.1524 1.73192 27.2006 1.70843C27.2492 1.68454 27.2858 1.64587 27.3105 1.59241C27.3356 1.53855 27.3482 1.46688 27.3482 1.37738C27.3482 1.28789 27.3356 1.21662 27.3105 1.16357C27.2854 1.11011 27.2484 1.07164 27.1994 1.04816C27.1508 1.02426 27.0908 1.01232 27.0196 1.01232H26.8762V1.74366ZM29.1645 1.12894C29.1605 1.0844 29.1425 1.04978 29.1105 1.02507C29.0789 0.999966 29.0337 0.987412 28.975 0.987412C28.9361 0.987412 28.9038 0.992474 28.8778 1.0026C28.8519 1.01272 28.8325 1.02669 28.8195 1.04451C28.8066 1.06192 28.7999 1.08197 28.7995 1.10465C28.7987 1.12327 28.8023 1.13967 28.8104 1.15385C28.8189 1.16802 28.8311 1.18058 28.8469 1.19151C28.8631 1.20204 28.8825 1.21135 28.9052 1.21945C28.9278 1.22755 28.9534 1.23464 28.9817 1.24071L29.0886 1.26501C29.1502 1.27837 29.2044 1.29619 29.2514 1.31846C29.2988 1.34073 29.3385 1.36726 29.3705 1.39804C29.4029 1.42881 29.4274 1.46425 29.444 1.50434C29.4606 1.54443 29.4691 1.58938 29.4695 1.63919C29.4691 1.71775 29.4492 1.78517 29.4099 1.84146C29.3707 1.89775 29.3142 1.94088 29.2405 1.97084C29.1672 2.00081 29.0787 2.01579 28.975 2.01579C28.871 2.01579 28.7802 2.0002 28.7029 1.96902C28.6255 1.93784 28.5654 1.89046 28.5225 1.82688C28.4796 1.7633 28.4575 1.68292 28.4563 1.58573H28.7442C28.7466 1.62582 28.7574 1.65923 28.7764 1.68596C28.7954 1.71269 28.8215 1.73293 28.8548 1.7467C28.8884 1.76047 28.9272 1.76735 28.9714 1.76735C29.0119 1.76735 29.0463 1.76189 29.0746 1.75095C29.1034 1.74002 29.1255 1.72483 29.1409 1.7054C29.1562 1.68596 29.1641 1.66369 29.1645 1.63858C29.1641 1.61509 29.1568 1.59505 29.1427 1.57844C29.1285 1.56143 29.1066 1.54686 29.0771 1.53471C29.0479 1.52215 29.0107 1.51061 28.9653 1.50008L28.8353 1.46971C28.7276 1.44501 28.6428 1.40512 28.5808 1.35005C28.5188 1.29457 28.4881 1.21965 28.4885 1.1253C28.4881 1.04836 28.5087 0.980933 28.5504 0.923024C28.5921 0.865116 28.6498 0.819964 28.7235 0.787567C28.7972 0.755171 28.8813 0.738973 28.9756 0.738973C29.072 0.738973 29.1556 0.755373 29.2265 0.788175C29.2978 0.820571 29.353 0.866128 29.3923 0.924847C29.4316 0.983565 29.4517 1.0516 29.4525 1.12894H29.1645ZM31.323 2V0.755981H31.8369C31.9301 0.755981 32.0104 0.774204 32.0781 0.81065C32.1461 0.846691 32.1985 0.897107 32.2354 0.9619C32.2723 1.02629 32.2907 1.1012 32.2907 1.18665C32.2907 1.2725 32.2718 1.34762 32.2342 1.41201C32.1969 1.47599 32.1437 1.5256 32.0744 1.56083C32.0052 1.59606 31.923 1.61367 31.8278 1.61367H31.5107V1.37678H31.7719C31.8173 1.37678 31.8551 1.36888 31.8855 1.35309C31.9163 1.33729 31.9396 1.31522 31.9554 1.28688C31.9712 1.25812 31.9791 1.22472 31.9791 1.18665C31.9791 1.14818 31.9712 1.11497 31.9554 1.08703C31.9396 1.05868 31.9163 1.03682 31.8855 1.02143C31.8547 1.00604 31.8169 0.998346 31.7719 0.998346H31.6237V2H31.323ZM33.106 2V0.755981H33.6199C33.713 0.755981 33.7934 0.772786 33.861 0.806398C33.9291 0.839604 33.9815 0.887388 34.0184 0.949751C34.0552 1.01171 34.0736 1.08521 34.0736 1.17025C34.0736 1.2565 34.0548 1.3298 34.0171 1.39014C33.9795 1.45007 33.926 1.49583 33.8568 1.52742C33.7875 1.5586 33.7055 1.57419 33.6108 1.57419H33.2858V1.33729H33.5549C33.6002 1.33729 33.6381 1.33142 33.6685 1.31968C33.6993 1.30753 33.7225 1.28931 33.7383 1.26501C33.7541 1.24031 33.762 1.20872 33.762 1.17025C33.762 1.13178 33.7541 1.09999 33.7383 1.07488C33.7225 1.04937 33.6993 1.03034 33.6685 1.01778C33.6377 1.00483 33.5998 0.998346 33.5549 0.998346H33.4067V2H33.106ZM33.8064 1.43144L34.1162 2H33.7881L33.4844 1.43144H33.8064ZM34.9057 2V0.755981H35.7731V1.00017H35.2063V1.25529H35.7287V1.50008H35.2063V1.75581H35.7731V2H34.9057ZM36.6285 2V0.755981H37.1424C37.2355 0.755981 37.3159 0.774204 37.3835 0.81065C37.4515 0.846691 37.504 0.897107 37.5408 0.9619C37.5777 1.02629 37.5961 1.1012 37.5961 1.18665C37.5961 1.2725 37.5773 1.34762 37.5396 1.41201C37.5024 1.47599 37.4491 1.5256 37.3799 1.56083C37.3106 1.59606 37.2284 1.61367 37.1333 1.61367H36.8162V1.37678H37.0774C37.1227 1.37678 37.1606 1.36888 37.191 1.35309C37.2217 1.33729 37.245 1.31522 37.2608 1.28688C37.2766 1.25812 37.2845 1.22472 37.2845 1.18665C37.2845 1.14818 37.2766 1.11497 37.2608 1.08703C37.245 1.05868 37.2217 1.03682 37.191 1.02143C37.1602 1.00604 37.1223 0.998346 37.0774 0.998346H36.9292V2H36.6285ZM38.5302 2H38.207L38.6268 0.755981H39.0271L39.4468 2H39.1236L38.8315 1.06942H38.8218L38.5302 2ZM38.4871 1.51041H39.1625V1.7388H38.4871V1.51041ZM40.2478 2V0.755981H40.7617C40.8549 0.755981 40.9353 0.772786 41.0029 0.806398C41.0709 0.839604 41.1234 0.887388 41.1602 0.949751C41.1971 1.01171 41.2155 1.08521 41.2155 1.17025C41.2155 1.2565 41.1966 1.3298 41.159 1.39014C41.1213 1.45007 41.0679 1.49583 40.9986 1.52742C40.9294 1.5586 40.8474 1.57419 40.7526 1.57419H40.4276V1.33729H40.6967C40.7421 1.33729 40.78 1.33142 40.8103 1.31968C40.8411 1.30753 40.8644 1.28931 40.8802 1.26501C40.896 1.24031 40.9039 1.20872 40.9039 1.17025C40.9039 1.13178 40.896 1.09999 40.8802 1.07488C40.8644 1.04937 40.8411 1.03034 40.8103 1.01778C40.7795 1.00483 40.7417 0.998346 40.6967 0.998346H40.5485V2H40.2478ZM40.9482 1.43144L41.258 2H40.93L40.6263 1.43144H40.9482ZM42.3166 2H41.9934L42.4132 0.755981H42.8135L43.2332 2H42.9101L42.6179 1.06942H42.6082L42.3166 2ZM42.2735 1.51041H42.9489V1.7388H42.2735V1.51041ZM43.8382 1.00017V0.755981H44.8897V1.00017H44.5125V2H44.216V1.00017H43.8382ZM46.0043 0.755981V2H45.7036V0.755981H46.0043ZM48.0343 1.37799C48.0343 1.51486 48.008 1.63088 47.9554 1.72605C47.9027 1.82121 47.8314 1.8935 47.7415 1.9429C47.652 1.99231 47.5516 2.01701 47.4403 2.01701C47.3285 2.01701 47.2279 1.9921 47.1384 1.94229C47.0489 1.89248 46.9778 1.8202 46.9252 1.72544C46.8729 1.63028 46.8468 1.51446 46.8468 1.37799C46.8468 1.24112 46.8729 1.1251 46.9252 1.02993C46.9778 0.934768 47.0489 0.862484 47.1384 0.813079C47.2279 0.763675 47.3285 0.738973 47.4403 0.738973C47.5516 0.738973 47.652 0.763675 47.7415 0.813079C47.8314 0.862484 47.9027 0.934768 47.9554 1.02993C48.008 1.1251 48.0343 1.24112 48.0343 1.37799ZM47.727 1.37799C47.727 1.297 47.7154 1.22856 47.6923 1.17268C47.6697 1.11679 47.6369 1.07448 47.5939 1.04573C47.5514 1.01697 47.5002 1.0026 47.4403 1.0026C47.3807 1.0026 47.3295 1.01697 47.2866 1.04573C47.2437 1.07448 47.2106 1.11679 47.1876 1.17268C47.1649 1.22856 47.1536 1.297 47.1536 1.37799C47.1536 1.45898 47.1649 1.52742 47.1876 1.5833C47.2106 1.63919 47.2437 1.6815 47.2866 1.71026C47.3295 1.73901 47.3807 1.75338 47.4403 1.75338C47.5002 1.75338 47.5514 1.73901 47.5939 1.71026C47.6369 1.6815 47.6697 1.63919 47.6923 1.5833C47.7154 1.52742 47.727 1.45898 47.727 1.37799ZM49.9357 0.755981V2H49.6806L49.1856 1.28202H49.1777V2H48.877V0.755981H49.1357L49.6253 1.47275H49.6357V0.755981H49.9357Z" fill="white"/>
<path d="M15.8799 17.9052H11.5513V16.4984C11.7677 15.9573 13.8238 14.334 13.6074 12.6025C15.0791 13.3817 14.9781 15.5244 14.6896 16.4984L15.4471 15.5244C15.9882 15.6326 15.8799 17.1477 15.8799 17.9052Z" fill="#1E3A8A"/>
<path d="M16.4213 18.5542H11.1187L11.9844 20.2857H15.5555L16.4213 18.5542Z" fill="#1E3A8A"/>
<path d="M12.8499 21.5841L12.417 20.9348H15.1224L14.5813 21.8006V25.3717H12.8499V21.5841Z" fill="#1E3A8A"/>
<rect x="11.5264" y="25.1057" width="4.62281" height="0.27193" fill="#1E3A8A"/>
<circle cx="38.5592" cy="14.502" r="1.51474" fill="#1E3A8A"/>
<path d="M42.3101 18.447C38.6747 15.6194 35.602 17.2688 34.52 18.447C36.8859 19.5433 38.1506 21.212 38.4872 21.9092C38.6264 21.0956 40.9877 19.3125 42.3101 18.447Z" fill="#1E3A8A"/>
<path d="M38.4147 23.7717C37.8377 21.9829 34.8082 20.2373 33.3656 19.5881L32.5 21.2471C36.12 23.0118 36.3984 24.1257 36.6114 24.8537H40.1576C40.5038 23.1802 43.1994 21.704 44.4737 21.2471L43.6081 19.5881C39.915 21.1462 38.6071 23.0264 38.4147 23.7717Z" fill="#1E3A8A"/>
<path d="M17.3976 39.3663C17.4836 39.2231 17.4931 39.1228 17.4931 38.2202C17.4931 37.3081 17.4979 37.2269 17.5743 37.2269C17.6221 37.2221 17.7177 37.2651 17.7893 37.3224C17.8658 37.375 17.9565 37.4848 17.9948 37.5612C18.0521 37.6758 18.0664 37.9241 18.0664 38.8028C18.0664 39.6815 18.0521 39.9298 17.9948 40.0444C17.9565 40.1256 17.8658 40.2307 17.7893 40.2832C17.7177 40.3405 17.5887 40.3978 17.3355 40.4503L17.3689 40.9183C17.3928 41.3051 17.388 41.3863 17.3259 41.4054C17.2829 41.4198 17.0249 41.2287 16.0599 40.3787H13.5039L14.2062 39.6624H15.5869C16.7096 39.6624 17.001 39.6481 17.1348 39.5908C17.2256 39.5526 17.345 39.4475 17.3976 39.3663Z" fill="#1E3A8A"/>
<path d="M12.2903 41.0187C12.6293 41.0282 12.7347 41.0518 12.9495 41.171C13.0928 41.2474 13.2604 41.3769 13.3225 41.4581C13.3846 41.5346 13.466 41.7063 13.5042 41.84C13.5472 41.9689 13.5802 42.1838 13.5755 42.3175C13.5755 42.4464 13.6135 42.6282 13.6565 42.7237C13.709 42.8383 13.7285 42.9673 13.7141 43.1534C13.7045 43.2967 13.6474 43.5116 13.5901 43.631C13.5328 43.7455 13.3751 43.9744 13.2366 44.1319C13.0168 44.3898 12.998 44.4332 13.0266 44.586C13.041 44.6768 13.0981 44.8104 13.1506 44.8819C13.2032 44.9535 13.3128 45.0489 13.3987 45.0919C13.4846 45.1349 13.7377 45.2063 13.9622 45.254C14.1819 45.3018 14.4307 45.3641 14.512 45.3976C14.5884 45.4262 14.7364 45.5362 15.0374 45.837L15.3577 45.7608C15.5344 45.7179 15.7731 45.6415 15.8831 45.589C15.9927 45.5365 16.1452 45.441 16.2171 45.3741C16.3269 45.2739 16.3508 45.2115 16.3508 44.8009L15.0139 44.8722L15.1096 44.715C15.1621 44.629 15.2474 44.4762 15.2952 44.3712C15.343 44.2661 15.4102 44.0364 15.4436 43.8692C15.4723 43.6973 15.5394 43.397 15.5872 43.2013C15.6302 43.0007 15.7204 42.7326 15.7825 42.6036C15.8399 42.4699 15.9792 42.274 16.0842 42.1691C16.2179 42.0404 16.3566 41.9542 16.5188 41.9112C16.6716 41.8684 16.8625 41.859 17.0676 41.878C17.2826 41.8971 17.4307 41.9406 17.5549 42.0265C17.6553 42.0933 17.8039 42.2509 17.8899 42.3751C17.971 42.4992 18.0804 42.7041 18.1282 42.8282C18.1712 42.9524 18.2524 43.2968 18.3049 43.5929C18.3766 43.989 18.4441 44.2229 18.7639 44.8624L17.4456 44.8009V45.0255C17.4456 45.1971 17.4739 45.2784 17.5549 45.3595C17.6122 45.4167 17.7699 45.5121 17.9036 45.5694C18.0325 45.6267 18.3337 45.727 18.5725 45.7843C18.8062 45.8463 19.0641 45.9369 19.1458 45.9942C19.2222 46.0468 19.3375 46.1763 19.3948 46.2814C19.452 46.3863 19.4992 46.4959 19.4993 46.5294C19.4993 46.5772 18.4244 46.5919 14.2727 46.5919C9.32095 46.5919 9.04254 46.5868 9.0608 46.506C9.07513 46.4582 9.0992 46.3577 9.11354 46.2814C9.13264 46.2002 9.18492 46.0615 9.23268 45.9708C9.27568 45.8753 9.38605 45.7366 9.47682 45.6554C9.56293 45.5742 9.74457 45.4737 9.87819 45.4308C10.0074 45.3878 10.2985 45.3164 10.5227 45.2687C10.7425 45.2209 10.9912 45.1396 11.0676 45.087C11.144 45.0344 11.2445 44.9342 11.2922 44.8722C11.3399 44.8053 11.3922 44.6766 11.4065 44.586C11.4304 44.438 11.4061 44.3856 11.2102 44.1564C11.0908 44.0083 10.9382 43.7833 10.8714 43.6544C10.8045 43.5207 10.7372 43.3057 10.7229 43.1769C10.7039 43.0004 10.7236 42.8811 10.7952 42.7237C10.8573 42.5805 10.8909 42.4036 10.8909 42.1983C10.8909 41.9741 10.919 41.8259 10.9905 41.6827C11.0478 41.5729 11.1633 41.4153 11.2493 41.3341C11.3353 41.2577 11.512 41.1474 11.6458 41.0948C11.8319 41.0233 11.9705 41.0044 12.2903 41.0187ZM12.3235 35.7276C12.8283 35.5286 16.421 35.5287 16.7815 35.7374C16.8865 35.8091 17.006 35.9377 17.0442 36.0235C17.0967 36.143 17.1106 36.444 17.1106 37.4562C17.1106 38.6452 17.1057 38.7407 17.0149 38.8888C16.9623 38.9699 16.848 39.0843 16.7669 39.1368C16.6188 39.2276 16.5233 39.2325 14.0296 39.2325L13.4465 39.7345C13.0979 40.0305 12.8254 40.2304 12.7776 40.2208C12.7013 40.2112 12.692 40.154 12.7063 39.7198C12.7159 39.2619 12.7108 39.2326 12.6204 39.2325C12.5678 39.2325 12.4765 39.2084 12.4192 39.1798C12.3571 39.151 12.2524 39.0697 12.176 38.9982C12.0949 38.9218 12.0278 38.7885 11.9944 38.6358C11.961 38.4926 11.9516 37.9574 11.9612 37.2745C11.9755 36.3208 11.9894 36.129 12.0608 36.0001C12.1038 35.9142 12.2232 35.7898 12.3235 35.7276ZM16.595 35.8653C13.0405 35.8462 12.6149 35.8558 12.5003 35.9083C12.4191 35.9465 12.3236 36.023 12.2854 36.0851C12.2281 36.1758 12.209 36.4195 12.1995 37.2501C12.1899 37.8276 12.1998 38.3959 12.2141 38.5157C12.238 38.6637 12.2953 38.7736 12.386 38.8644C12.491 38.9598 12.5721 38.9932 12.7151 38.9933C12.8202 38.9933 12.9206 39.0224 12.9397 39.0558C12.954 39.0844 12.9689 39.2702 12.9641 39.461C12.9594 39.6464 12.9686 39.7943 12.9876 39.7862C13.0114 39.7767 13.2313 39.5949 13.4797 39.38L13.9339 38.9933H16.5755L16.8723 38.7071V36.1759L16.595 35.8653Z" fill="#1E3A8A"/>
<path d="M16.9678 36.2004V38.7805L16.6094 39.1155L14.0293 39.0432L12.835 39.9749L12.7637 39.1868L12.1426 38.9006L12.0947 38.2795V36.2004L12.6436 35.7708L16.6094 35.7229L16.9678 36.2004ZM14.2881 37.6096C13.3756 37.6096 13.0558 37.6243 13.0176 37.6672V37.6711C12.9841 37.6998 12.9691 37.7577 12.9834 37.7864C12.9983 37.834 13.3049 37.8479 14.293 37.8479C15.105 37.8479 15.5921 37.8287 15.6064 37.8C15.6205 37.776 15.6017 37.719 15.5684 37.6809C15.5205 37.6141 15.3337 37.6048 14.2881 37.6096ZM14.5654 36.759C13.195 36.7495 12.9984 36.7595 12.9648 36.8215C12.9458 36.8643 12.9501 36.9167 12.9785 36.9407C13.0072 36.9693 13.6381 36.9834 14.5791 36.9739H14.5889C16.0976 36.9644 16.1318 36.9646 16.1318 36.8694C16.1318 36.7742 16.094 36.7742 14.582 36.76L14.5654 36.759Z" fill="#1E3A8A"/>
<path d="M35.3251 36.4032C35.734 36.2301 36.3398 35.9748 36.673 35.8342C37.0062 35.6957 37.2809 35.581 37.2831 35.5789C37.2874 35.5789 37.8867 35.8277 38.6137 36.1327C39.3428 36.4356 39.955 36.6931 39.9724 36.7039C39.9962 36.7169 39.9832 36.7298 39.9183 36.758C39.8707 36.7774 39.3644 36.9895 38.7932 37.2275C38.2221 37.4654 37.6531 37.7056 37.3004 37.8549L36.4567 37.5044C35.9937 37.3118 35.39 37.0609 35.1153 36.9462C34.8405 36.8337 34.6112 36.7342 34.6004 36.7277C34.5917 36.7212 34.9184 36.5741 35.3251 36.4032Z" fill="#1E3A8A"/>
<path d="M31.8419 46.3055C31.8267 46.2406 31.8159 46.0329 31.8159 45.7582V45.3147H35.4614L35.5588 45.5462C35.6129 45.6738 35.6799 45.8079 35.7102 45.8426C35.7405 45.8772 35.7903 45.9183 35.8227 45.9334C35.8725 45.9572 36.1451 45.9637 37.2896 45.9637C38.2848 45.9637 38.711 45.9572 38.7435 45.9399C38.7716 45.9269 38.8192 45.8902 38.8517 45.8577C38.8884 45.8252 38.9512 45.7041 39.107 45.3147H42.7633V45.7582C42.7633 46.0329 42.7525 46.2406 42.7373 46.3055C42.72 46.3769 42.6811 46.4375 42.6118 46.5089C42.5513 46.5717 42.482 46.6171 42.4279 46.6322C42.3674 46.6495 40.881 46.656 37.2896 46.656C33.6982 46.656 32.2118 46.6495 32.1513 46.6322C32.0972 46.6171 32.0279 46.5717 31.9674 46.5089C31.8981 46.4375 31.8592 46.3769 31.8419 46.3055Z" fill="#1E3A8A"/>
<path d="M40.7944 39.0618C41.4101 39.0618 41.5425 39.0689 41.6118 39.0969C41.655 39.1142 41.7199 39.1553 41.7524 39.1877C41.7871 39.2202 41.8331 39.2831 41.8569 39.3264C41.8957 39.4064 41.8979 39.4991 41.8979 44.6223H40.3511C38.9232 44.6223 38.7975 44.6248 38.7261 44.6594C38.6807 44.6811 38.6283 44.7219 38.6089 44.7522C38.5872 44.7828 38.5292 44.911 38.3823 45.2717H36.186L36.0884 45.0266C36.0302 44.8823 35.9679 44.7616 35.9312 44.7288C35.8987 44.6963 35.8507 44.6587 35.8247 44.6458C35.7859 44.6285 35.3225 44.6223 32.6812 44.6223V42.0159C32.6812 39.4963 32.6834 39.4064 32.7222 39.3264C32.746 39.2831 32.792 39.22 32.8267 39.1897C32.8592 39.1573 32.9172 39.1161 32.9517 39.0989C33.0079 39.0686 33.1271 39.0639 34.52 39.0618V39.5061C34.52 39.8325 34.5287 39.9688 34.5503 40.0208C34.5654 40.0575 34.6022 40.112 34.6304 40.1379C34.6588 40.164 34.8036 40.2419 34.9526 40.3088C35.1019 40.3737 35.3401 40.4683 35.4829 40.5159C35.6255 40.5634 35.8394 40.6244 35.9585 40.6526C36.0775 40.6807 36.2688 40.7193 36.3813 40.7366C36.494 40.756 36.742 40.782 36.9321 40.7971C37.1959 40.8166 37.3629 40.8166 37.6353 40.7971C37.8321 40.7841 38.1139 40.7518 38.2632 40.7258C38.4125 40.6999 38.6507 40.6476 38.7935 40.6086C38.9362 40.5697 39.1502 40.5005 39.269 40.4573C39.388 40.4119 39.5784 40.3346 39.6909 40.2805C39.8033 40.2287 39.9204 40.164 39.9487 40.1379C39.9769 40.112 40.0137 40.0575 40.0288 40.0208C40.0504 39.9688 40.0591 39.832 40.0591 39.0618H40.7944ZM33.979 43.1077V43.8H34.8667V43.1077H33.979ZM35.6665 43.1077V43.8H40.6001V43.1077H35.6665ZM33.979 41.55V42.2424H34.8667V41.55H33.979ZM35.6665 41.55V42.2424H40.6001V41.55H35.6665ZM39.3511 37.7424C39.3597 37.7424 39.3667 38.1754 39.3667 39.6682L39.2544 39.72C39.1917 39.7481 39.053 39.8023 38.9448 39.8391C38.8389 39.878 38.6378 39.9363 38.5015 39.9709C38.3652 40.0034 38.1397 40.0489 38.0034 40.0706C37.8196 40.0987 37.6335 40.1096 37.2896 40.1096C36.9521 40.1096 36.7552 40.0987 36.5757 40.0706C36.4394 40.0489 36.2139 40.0034 36.0776 39.9709C35.9414 39.9363 35.7168 39.8693 35.5806 39.8196C35.4443 39.7677 35.3054 39.7136 35.2124 39.6682L35.2173 38.7034C35.2194 37.8306 35.2232 37.7388 35.2534 37.7493C35.2729 37.7558 35.5067 37.8526 35.7749 37.9651C36.0432 38.0776 36.4743 38.2593 36.7339 38.3674C37.0604 38.5037 37.229 38.5647 37.2896 38.5647C37.3523 38.5647 37.6357 38.4564 38.356 38.1536C38.8888 37.9301 39.3344 37.745 39.3511 37.7424Z" fill="#1E3A8A"/>
</svg>
