<svg width="11" height="9" viewBox="0 0 11 9" fill="none" xmlns="http://www.w3.org/2000/svg">
<path fill-rule="evenodd" clip-rule="evenodd" d="M5.50011 0C4.39554 0 3.50011 0.895431 3.50011 2C3.50011 3.10457 4.39554 4 5.50011 4C6.60468 4 7.50011 3.10457 7.50011 2C7.50011 0.895431 6.60468 0 5.50011 0ZM4.50011 2C4.50011 1.44772 4.94783 1 5.50011 1C6.0524 1 6.50011 1.44772 6.50011 2C6.50011 2.55228 6.0524 3 5.50011 3C4.94783 3 4.50011 2.55228 4.50011 2Z" fill="#2563EB"/>
<path fill-rule="evenodd" clip-rule="evenodd" d="M5.50011 8.5C4.93167 8.5 4.11205 8.36565 3.49003 8.0798C3.18491 7.93958 2.85752 7.73161 2.66441 7.42045C2.56246 7.2562 2.49805 7.06256 2.50016 6.84704C2.50225 6.63359 2.56919 6.43115 2.6788 6.24564C3.18004 5.39736 4.21988 4.5 5.50011 4.5C6.78033 4.5 7.82018 5.39736 8.32142 6.24564C8.43103 6.43115 8.49797 6.63359 8.50006 6.84704C8.50217 7.06256 8.43776 7.2562 8.33581 7.42045C8.1427 7.73161 7.81531 7.93958 7.51019 8.0798C6.88817 8.36565 6.06855 8.5 5.50011 8.5ZM3.53974 6.75436C3.50145 6.81917 3.50017 6.85134 3.50011 6.85682C3.50007 6.86043 3.49995 6.87037 3.51407 6.89312C3.55377 6.95709 3.66906 7.06153 3.9076 7.17116C4.37291 7.38499 5.04453 7.5 5.50011 7.5C5.95569 7.5 6.62731 7.38499 7.09262 7.17116C7.33116 7.06153 7.44645 6.95709 7.48615 6.89312C7.50027 6.87037 7.50016 6.86068 7.50011 6.85707C7.50006 6.85159 7.49878 6.81917 7.46048 6.75436C7.07188 6.0967 6.31186 5.5 5.50011 5.5C4.68835 5.5 3.92834 6.0967 3.53974 6.75436Z" fill="#2563EB"/>
<path fill-rule="evenodd" clip-rule="evenodd" d="M0.750111 3.5C0.750111 2.67157 1.42168 2 2.25011 2C3.07854 2 3.75011 2.67157 3.75011 3.5C3.75011 4.32843 3.07854 5 2.25011 5C1.42168 5 0.750111 4.32843 0.750111 3.5ZM2.25011 3C1.97397 3 1.75011 3.22386 1.75011 3.5C1.75011 3.77614 1.97397 4 2.25011 4C2.52625 4 2.75011 3.77614 2.75011 3.5C2.75011 3.22386 2.52625 3 2.25011 3Z" fill="#2563EB"/>
<path d="M0.947977 7.2223C0.825206 7.46965 0.525164 7.57064 0.277814 7.44787C0.0304645 7.3251 -0.0705266 7.02505 0.0522442 6.7777C0.235936 6.40761 0.513974 6.03603 0.863735 5.75171C1.21363 5.46729 1.662 5.25 2.1737 5.25C2.44984 5.25 2.6737 5.47386 2.6737 5.75C2.6737 6.02614 2.44984 6.25 2.1737 6.25C1.95321 6.25 1.7205 6.34398 1.49451 6.52768C1.26839 6.71149 1.07573 6.96491 0.947977 7.2223Z" fill="#2563EB"/>
<path fill-rule="evenodd" clip-rule="evenodd" d="M7.40514 3.5C7.40514 2.67157 8.07671 2 8.90514 2C9.73357 2 10.4051 2.67157 10.4051 3.5C10.4051 4.32843 9.73357 5 8.90514 5C8.07671 5 7.40514 4.32843 7.40514 3.5ZM8.90514 3C8.629 3 8.40514 3.22386 8.40514 3.5C8.40514 3.77614 8.629 4 8.90514 4C9.18128 4 9.40514 3.77614 9.40514 3.5C9.40514 3.22386 9.18128 3 8.90514 3Z" fill="#2563EB"/>
<path d="M10.9502 6.7777C11.0729 7.02505 10.972 7.3251 10.7246 7.44787C10.4773 7.57064 10.1772 7.46965 10.0544 7.2223C9.92669 6.96491 9.73403 6.71149 9.50791 6.52768C9.28192 6.34398 9.04922 6.25 8.82872 6.25C8.55258 6.25 8.32872 6.02614 8.32872 5.75C8.32872 5.47386 8.55258 5.25 8.82872 5.25C9.34043 5.25 9.78879 5.46729 10.1387 5.75171C10.4884 6.03603 10.7665 6.40761 10.9502 6.7777Z" fill="#2563EB"/>
</svg>
