<svg width="20" height="20" viewBox="0 0 20 20" fill="none" xmlns="http://www.w3.org/2000/svg">
<path d="M14.1663 18.334H5.83301C5.49134 18.334 5.20801 18.0507 5.20801 17.709C5.20801 17.3673 5.49134 17.084 5.83301 17.084H14.1663C14.508 17.084 14.7913 17.3673 14.7913 17.709C14.7913 18.0507 14.508 18.334 14.1663 18.334Z" fill="white"/>
<path d="M16.9585 4.59922L13.6252 6.98255C13.1835 7.29922 12.5502 7.10755 12.3585 6.59922L10.7835 2.39922C10.5168 1.67422 9.49185 1.67422 9.22518 2.39922L7.64185 6.59089C7.45018 7.10755 6.82518 7.29922 6.38352 6.97422L3.05018 4.59089C2.38352 4.12422 1.50018 4.78255 1.77518 5.55755L5.24185 15.2659C5.35852 15.5992 5.67518 15.8159 6.02518 15.8159H13.9669C14.3169 15.8159 14.6335 15.5909 14.7502 15.2659L18.2169 5.55755C18.5002 4.78255 17.6169 4.12422 16.9585 4.59922ZM12.0835 12.2909H7.91685C7.57518 12.2909 7.29185 12.0076 7.29185 11.6659C7.29185 11.3242 7.57518 11.0409 7.91685 11.0409H12.0835C12.4252 11.0409 12.7085 11.3242 12.7085 11.6659C12.7085 12.0076 12.4252 12.2909 12.0835 12.2909Z" fill="white"/>
</svg>
