<svg width="10" height="9" viewBox="0 0 10 9" fill="none" xmlns="http://www.w3.org/2000/svg">
<path d="M1.77639 3.75432C1.5294 3.63082 1.42929 3.33049 1.55279 3.0835C1.67628 2.83651 1.97662 2.73639 2.22361 2.85989L3.72361 3.60989C3.9706 3.73338 4.07071 4.03372 3.94721 4.28071C3.82372 4.5277 3.52338 4.62781 3.27639 4.50432L1.77639 3.75432Z" fill="#246C44"/>
<path d="M1.77639 5.25432C1.5294 5.13082 1.42929 4.83049 1.55279 4.5835C1.67628 4.33651 1.97662 4.23639 2.22361 4.35989L3.72361 5.10989C3.9706 5.23338 4.07071 5.53372 3.94721 5.78071C3.82372 6.0277 3.52338 6.12781 3.27639 6.00432L1.77639 5.25432Z" fill="#246C44"/>
<path d="M8.44721 3.0835C8.57071 3.33049 8.4706 3.63082 8.22361 3.75432L6.72361 4.50432C6.47662 4.62781 6.17628 4.5277 6.05279 4.28071C5.92929 4.03372 6.0294 3.73338 6.27639 3.60989L7.77639 2.85989C8.02338 2.73639 8.32372 2.83651 8.44721 3.0835Z" fill="#246C44"/>
<path d="M8.44721 4.5835C8.57071 4.83049 8.4706 5.13082 8.22361 5.25432L6.72361 6.00432C6.47662 6.12781 6.17628 6.0277 6.05279 5.78071C5.92929 5.53372 6.0294 5.23338 6.27639 5.10989L7.77639 4.35989C8.02338 4.23639 8.32372 4.33651 8.44721 4.5835Z" fill="#246C44"/>
<path fill-rule="evenodd" clip-rule="evenodd" d="M5 8.3071C5.17509 8.77545 5.17511 8.77544 5.17515 8.77542L5.17969 8.77372L5.19177 8.76917L5.23708 8.75195C5.27626 8.73698 5.33288 8.71518 5.40356 8.68749C5.54483 8.63214 5.74276 8.55309 5.97025 8.45793C6.42198 8.26897 7.00309 8.01119 7.48933 7.7461C8.02936 7.45169 8.82731 7.11547 9.30475 6.92235C9.7207 6.75409 10 6.35033 10 5.89477V1.0917C10 0.371091 9.31018 -0.16922 8.60031 0.0489425C8.13216 0.192816 7.51911 0.394605 7.05041 0.598667C6.56075 0.811852 5.97689 1.13708 5.52644 1.40128C5.31991 1.52241 5.13763 1.63296 5 1.71767C4.86237 1.63296 4.68009 1.52241 4.47356 1.40128C4.02311 1.13708 3.43925 0.811852 2.94959 0.598667C2.48089 0.394605 1.86784 0.192816 1.39969 0.0489424C0.68982 -0.169221 0 0.371091 0 1.0917V5.89477C0 6.35033 0.279303 6.75409 0.695254 6.92235C1.17269 7.11547 1.97064 7.45169 2.51067 7.7461C2.99691 8.01119 3.57802 8.26897 4.02975 8.45793C4.25724 8.55309 4.45517 8.63214 4.59644 8.68749C4.66712 8.71518 4.72374 8.73698 4.76292 8.75195L4.80823 8.76917L4.82031 8.77372L4.82448 8.77528C4.82451 8.7753 4.82491 8.77545 5 8.3071ZM1.10593 1.00482C1.06002 0.990711 1 1.02165 1 1.0917V5.89477C1 5.93599 1.02566 5.97728 1.07024 5.99532C1.5473 6.18829 2.39347 6.54326 2.98933 6.8681C3.43029 7.1085 3.97418 7.35072 4.41565 7.53539C4.44427 7.54736 4.47241 7.55907 4.5 7.5705V2.58417C4.36468 2.5007 4.17922 2.38795 3.96765 2.26386C3.52351 2.00337 2.98237 1.7036 2.55041 1.51554C2.13625 1.33522 1.56835 1.14694 1.10593 1.00482ZM5.5 2.58417V7.5705C5.52759 7.55907 5.55573 7.54736 5.58435 7.53539C6.02582 7.35072 6.56971 7.1085 7.01067 6.8681C7.60653 6.54326 8.4527 6.18829 8.92976 5.99532C8.97434 5.97728 9 5.93599 9 5.89477V1.0917C9 1.02165 8.93998 0.990711 8.89407 1.00482C8.43164 1.14694 7.86375 1.33522 7.44959 1.51554C7.01763 1.7036 6.47649 2.00337 6.03235 2.26386C5.82078 2.38795 5.63532 2.5007 5.5 2.58417Z" fill="#246C44"/>
<path d="M5 8.3071L5.17515 8.77542C5.06224 8.81763 4.93739 8.81749 4.82448 8.77528L5 8.3071Z" fill="#246C44"/>
</svg>
