<svg width="24" height="24" viewBox="0 0 24 24" fill="none" xmlns="http://www.w3.org/2000/svg">
<g clip-path="url(#clip0_8055_14392)">
<rect width="24" height="24" rx="4" fill="white"/>
<g clip-path="url(#clip1_8055_14392)">
<path d="M14.0488 12.9113H7.63281C7.35667 12.9113 7.13281 12.6874 7.13281 12.4113V12.2422C7.13281 11.9661 7.35667 11.7422 7.63281 11.7422H14.0488L11.3399 8.95599C11.1511 8.76185 11.1512 8.45273 11.3401 8.2587L11.4463 8.14955C11.6427 7.94781 11.9668 7.9479 12.1631 8.14975L15.885 11.9777C16.0736 12.1718 16.0736 12.4807 15.885 12.6748L12.1633 16.5034C11.967 16.7054 11.6426 16.7054 11.4463 16.5035L11.3397 16.3938C11.151 16.1998 11.1511 15.8908 11.3398 15.6967L14.0488 12.9113Z" fill="#7C1B25"/>
</g>
</g>
<defs>
<clipPath id="clip0_8055_14392">
<rect width="24" height="24" rx="4" fill="white"/>
</clipPath>
<clipPath id="clip1_8055_14392">
<rect width="10" height="10" fill="white" transform="translate(7 7)"/>
</clipPath>
</defs>
</svg>
