<svg width="20" height="20" viewBox="0 0 20 20" fill="none" xmlns="http://www.w3.org/2000/svg">
<path d="M6.37383 17.4255C6.34883 17.4255 6.3155 17.4422 6.29049 17.4422C4.67383 16.6422 3.35716 15.3172 2.54883 13.7005C2.54883 13.6755 2.56549 13.6422 2.56549 13.6172C3.58216 13.9172 4.63216 14.1422 5.67383 14.3172C5.85716 15.3672 6.07383 16.4089 6.37383 17.4255Z" fill="white"/>
<path d="M17.4492 13.7089C16.6242 15.3672 15.2492 16.7089 13.5742 17.5172C13.8909 16.4589 14.1576 15.3922 14.3326 14.3172C15.3826 14.1422 16.4159 13.9172 17.4326 13.6172C17.4242 13.6505 17.4492 13.6839 17.4492 13.7089Z" fill="white"/>
<path d="M17.5159 6.42604C16.4659 6.10938 15.4076 5.85104 14.3326 5.66771C14.1576 4.59271 13.8992 3.52604 13.5742 2.48438C15.2992 3.30937 16.6909 4.70104 17.5159 6.42604Z" fill="white"/>
<path d="M6.37604 2.57187C6.07604 3.58854 5.85938 4.62188 5.68438 5.67188C4.60938 5.83854 3.54271 6.10521 2.48438 6.42188C3.29271 4.74688 4.63438 3.37187 6.29271 2.54688C6.31771 2.54688 6.35104 2.57187 6.37604 2.57187Z" fill="white"/>
<path d="M12.9085 5.49297C10.9751 5.2763 9.02513 5.2763 7.0918 5.49297C7.30013 4.3513 7.5668 3.20964 7.9418 2.10964C7.95846 2.04297 7.95013 1.99297 7.95846 1.9263C8.6168 1.76797 9.2918 1.66797 10.0001 1.66797C10.7001 1.66797 11.3835 1.76797 12.0335 1.9263C12.0418 1.99297 12.0418 2.04297 12.0585 2.10964C12.4335 3.21797 12.7001 4.3513 12.9085 5.49297Z" fill="white"/>
<path d="M5.49102 12.9104C4.34102 12.7021 3.20768 12.4354 2.10768 12.0604C2.04102 12.0437 1.99102 12.0521 1.92435 12.0437C1.76602 11.3854 1.66602 10.7104 1.66602 10.0021C1.66602 9.30208 1.76602 8.61875 1.92435 7.96875C1.99102 7.96042 2.04102 7.96042 2.10768 7.94375C3.21602 7.57708 4.34102 7.30208 5.49102 7.09375C5.28268 9.02708 5.28268 10.9771 5.49102 12.9104Z" fill="white"/>
<path d="M18.3328 10.0021C18.3328 10.7104 18.2328 11.3854 18.0745 12.0437C18.0078 12.0521 17.9578 12.0437 17.8911 12.0604C16.7828 12.4271 15.6495 12.7021 14.5078 12.9104C14.7245 10.9771 14.7245 9.02708 14.5078 7.09375C15.6495 7.30208 16.7911 7.56875 17.8911 7.94375C17.9578 7.96042 18.0078 7.96875 18.0745 7.96875C18.2328 8.62708 18.3328 9.30208 18.3328 10.0021Z" fill="white"/>
<path d="M12.9085 14.5078C12.7001 15.6578 12.4335 16.7911 12.0585 17.8911C12.0418 17.9578 12.0418 18.0078 12.0335 18.0745C11.3835 18.2328 10.7001 18.3328 10.0001 18.3328C9.2918 18.3328 8.6168 18.2328 7.95846 18.0745C7.95013 18.0078 7.95846 17.9578 7.9418 17.8911C7.57513 16.7828 7.30013 15.6578 7.0918 14.5078C8.05846 14.6161 9.02513 14.6911 10.0001 14.6911C10.9751 14.6911 11.9501 14.6161 12.9085 14.5078Z" fill="white"/>
<path d="M13.1355 13.1374C11.0512 13.4004 8.94749 13.4004 6.86324 13.1374C6.60027 11.0532 6.60027 8.94944 6.86324 6.86519C8.94749 6.60223 11.0512 6.60223 13.1355 6.86519C13.3984 8.94944 13.3984 11.0532 13.1355 13.1374Z" fill="white"/>
</svg>
