<svg width="37" height="41" viewBox="0 0 37 41" fill="none" xmlns="http://www.w3.org/2000/svg">
<g clip-path="url(#clip0_4001_1927)">
<path d="M36.2764 22.915C36.2764 32.8181 28.2478 40.8467 18.3447 40.8467C8.44186 40.8465 0.414062 32.8179 0.414062 22.915V4.98438H36.2764V22.915ZM2.30176 23.8594C2.30176 32.1987 9.06203 38.9589 17.4014 38.959V23.8594H2.30176ZM19.2891 23.8594V38.959C27.6284 38.959 34.3887 32.1988 34.3887 23.8594H19.2891ZM2.30176 6.87109V21.9707H17.4014V6.87109H2.30176ZM19.2891 6.87109V21.9707H34.3887V6.87109H19.2891Z" fill="white"/>
<path d="M36.2764 1.21094V3.09863H0.414062V1.21094H36.2764ZM5.16797 1.72266C5.09194 1.72267 5.02322 1.73954 4.96191 1.77344C4.9006 1.80744 4.85144 1.85742 4.81543 1.92285C4.77944 1.98842 4.76175 2.06881 4.76172 2.16309C4.76172 2.2572 4.77898 2.33769 4.81445 2.40332C4.84983 2.46868 4.8981 2.51843 4.95898 2.55273C5.0204 2.5868 5.09036 2.60448 5.16797 2.60449C5.22689 2.60449 5.27967 2.59502 5.3252 2.57715C5.37081 2.5593 5.40967 2.53495 5.44141 2.50488C5.47312 2.47451 5.4985 2.44106 5.5166 2.4043C5.53499 2.3675 5.5452 2.32991 5.54883 2.29199L5.33984 2.29102C5.3362 2.31157 5.32976 2.33028 5.32031 2.34668C5.3111 2.36283 5.29867 2.37627 5.28418 2.3877C5.26996 2.39883 5.25332 2.40723 5.23438 2.41309C5.21571 2.41891 5.19471 2.42188 5.17188 2.42188C5.13135 2.42182 5.09616 2.41268 5.06641 2.39355C5.03681 2.374 5.01355 2.3449 4.99707 2.30664C4.98087 2.2681 4.97266 2.22005 4.97266 2.16309C4.97268 2.10847 4.98118 2.06191 4.99707 2.02344C5.01326 1.98498 5.0356 1.95493 5.06543 1.93457C5.09559 1.91418 5.13222 1.9043 5.17383 1.9043C5.197 1.90433 5.21823 1.90748 5.2373 1.91406C5.25676 1.92045 5.27389 1.93019 5.28809 1.94238C5.30233 1.95467 5.31361 1.96999 5.32227 1.9873C5.33085 2.00452 5.33704 2.02358 5.33984 2.04492H5.54883C5.54378 1.99374 5.53159 1.94802 5.51074 1.9082C5.48984 1.86836 5.46213 1.83495 5.42871 1.80762C5.39526 1.78001 5.35654 1.75838 5.3125 1.74414C5.26838 1.72962 5.21991 1.72266 5.16797 1.72266ZM7.74707 1.72266C7.67018 1.72269 7.6007 1.73944 7.53906 1.77344C7.47746 1.80748 7.42794 1.8573 7.3916 1.92285C7.35564 1.98842 7.33792 2.06881 7.33789 2.16309C7.33789 2.2572 7.3556 2.33769 7.3916 2.40332C7.42794 2.46864 7.47743 2.51839 7.53906 2.55273C7.60071 2.58703 7.67015 2.60446 7.74707 2.60449C7.8239 2.60449 7.89335 2.58681 7.95508 2.55273C8.01704 2.51867 8.06628 2.46892 8.10254 2.40332C8.13886 2.3377 8.15723 2.25745 8.15723 2.16309C8.15719 2.06881 8.13885 1.98842 8.10254 1.92285C8.06628 1.8574 8.01697 1.80745 7.95508 1.77344C7.89339 1.73942 7.82384 1.72266 7.74707 1.72266ZM33.1318 1.72266C33.0549 1.72266 32.9855 1.73951 32.9238 1.77344C32.8622 1.80746 32.8126 1.85738 32.7764 1.92285C32.7403 1.98842 32.7227 2.06881 32.7227 2.16309C32.7227 2.2572 32.7403 2.33769 32.7764 2.40332C32.8126 2.46856 32.8622 2.51842 32.9238 2.55273C32.9855 2.58696 33.0549 2.60449 33.1318 2.60449C33.2085 2.60447 33.2782 2.58679 33.3398 2.55273C33.4017 2.51867 33.451 2.4688 33.4873 2.40332C33.5235 2.33773 33.541 2.25738 33.541 2.16309C33.541 2.06881 33.5235 1.98842 33.4873 1.92285C33.451 1.85739 33.4017 1.80747 33.3398 1.77344C33.2782 1.73938 33.2085 1.72267 33.1318 1.72266ZM20.3975 1.72266C20.3325 1.72266 20.2744 1.73357 20.2236 1.75586C20.1729 1.77818 20.1332 1.80973 20.1045 1.84961C20.0757 1.88955 20.0612 1.9362 20.0615 1.98926C20.0613 2.05425 20.0823 2.1063 20.125 2.14453C20.1677 2.18245 20.2266 2.20955 20.3008 2.22656L20.3906 2.24707C20.4219 2.25432 20.4477 2.26284 20.4678 2.27148C20.488 2.27984 20.503 2.29009 20.5127 2.30176C20.5223 2.31312 20.527 2.32675 20.5273 2.34277C20.5271 2.3599 20.522 2.37537 20.5117 2.38867C20.5011 2.40207 20.4857 2.41336 20.4658 2.4209C20.4463 2.42844 20.4225 2.43164 20.3945 2.43164C20.3642 2.43164 20.3375 2.42736 20.3145 2.41797C20.2915 2.40847 20.2729 2.3944 20.2598 2.37598C20.2467 2.35755 20.2399 2.33427 20.2383 2.30664H20.0391C20.0399 2.37357 20.0555 2.42884 20.085 2.47266C20.1145 2.51645 20.1557 2.54978 20.209 2.57129C20.2623 2.59279 20.3257 2.60352 20.3975 2.60352C20.4688 2.60347 20.5296 2.59288 20.5801 2.57227C20.6308 2.55163 20.6702 2.52216 20.6973 2.4834C20.7243 2.44464 20.738 2.39782 20.7383 2.34375C20.738 2.3096 20.732 2.2785 20.7207 2.25098C20.7093 2.22333 20.6923 2.19798 20.6699 2.17676C20.6479 2.15561 20.6205 2.13739 20.5879 2.12207C20.5555 2.10672 20.518 2.09417 20.4756 2.08496L20.4014 2.06836C20.382 2.06419 20.3641 2.05927 20.3486 2.05371C20.3332 2.04817 20.3197 2.04234 20.3086 2.03516C20.2977 2.02762 20.2891 2.01856 20.2832 2.00879C20.2777 1.99904 20.2758 1.9874 20.2764 1.97461C20.2767 1.95908 20.2812 1.94553 20.29 1.93359C20.299 1.9213 20.3122 1.91128 20.3301 1.9043C20.348 1.89735 20.3707 1.89355 20.3975 1.89355C20.4376 1.89362 20.4685 1.90276 20.4902 1.91992C20.5122 1.93689 20.5245 1.9607 20.5273 1.99121H20.7266C20.7259 1.93803 20.7116 1.89098 20.6846 1.85059C20.6575 1.81023 20.6194 1.77912 20.5703 1.75684C20.5214 1.73423 20.4639 1.72266 20.3975 1.72266ZM2.56543 1.73438L2.85449 2.59277H3.13086L3.4209 1.73438H3.18848L2.99609 2.3623H2.98926L2.79785 1.73438H2.56543ZM3.97266 1.73438V2.59277H4.18066V1.73438H3.97266ZM6.09961 1.73438V1.90234H6.36035V2.59277H6.56445V1.90234H6.8252V1.73438H6.09961ZM8.73828 1.73438V2.59277H8.94531V2.29883H9.05176L9.20898 2.59277H9.43457L9.25586 2.26562C9.30344 2.24389 9.34027 2.21301 9.36621 2.17188C9.39215 2.13036 9.40521 2.07981 9.40527 2.02051C9.40527 1.96187 9.39262 1.91089 9.36719 1.86816C9.34182 1.82518 9.30565 1.79243 9.25879 1.76953C9.21222 1.74638 9.15695 1.7344 9.09277 1.73438H8.73828ZM9.89844 1.73438L10.2119 2.30566V2.59277H10.4189V2.30566L10.7324 1.73438H10.501L10.3193 2.09375H10.3115L10.1299 1.73438H9.89844ZM11.9932 1.73438V2.59277H12.3096C12.3965 2.59277 12.4718 2.57499 12.5352 2.54102C12.5985 2.50671 12.6476 2.45767 12.6816 2.39355C12.716 2.32936 12.7334 2.25239 12.7334 2.16309C12.7334 2.07404 12.716 1.99754 12.6816 1.93359C12.6473 1.86937 12.5985 1.8202 12.5352 1.78613C12.4721 1.7518 12.3969 1.73439 12.3096 1.73438H11.9932ZM13.3145 1.73438V2.59277H13.9131V2.42383H13.5215V2.24707H13.8818V2.0791H13.5215V1.90234H13.9131V1.73438H13.3145ZM14.5029 1.73438V2.59277H14.7051V2.0625H14.7119L14.918 2.58691H15.0469L15.2529 2.06543H15.2598V2.59277H15.4619V1.73438H15.2051L14.9873 2.26562H14.9775L14.7598 1.73438H14.5029ZM16.3037 1.73438L16.0137 2.59277H16.2373L16.2939 2.41211H16.5898L16.6465 2.59277H16.8691L16.5801 1.73438H16.3037ZM17.4219 1.73438V2.59277H17.6289V2.09766H17.6348L17.9756 2.59277H18.1514V1.73438H17.9443V2.22852H17.9375L17.5996 1.73438H17.4219ZM18.7422 1.73438V2.59277H19.0596C19.1466 2.59275 19.2218 2.57506 19.2852 2.54102C19.3485 2.50667 19.3976 2.45775 19.4316 2.39355C19.466 2.32936 19.4824 2.25239 19.4824 2.16309C19.4824 2.07414 19.4659 1.99749 19.4316 1.93359C19.3974 1.86952 19.3484 1.82019 19.2852 1.78613C19.2221 1.75178 19.146 1.73438 19.0586 1.73438H18.7422ZM22.0166 1.73438V2.59277H22.2236V2.32617H22.3643C22.4299 2.32617 22.4865 2.31332 22.5342 2.28906C22.582 2.26477 22.6188 2.23065 22.6445 2.18652C22.6704 2.14214 22.6836 2.0904 22.6836 2.03125C22.6836 1.97238 22.6709 1.92035 22.6455 1.87598C22.6201 1.83151 22.5838 1.79725 22.5371 1.77246C22.4905 1.74737 22.4352 1.73442 22.3711 1.73438H22.0166ZM23.2461 1.73438V2.59277H23.4531V2.29883H23.5596L23.7168 2.59277H23.9424L23.7646 2.26562C23.8118 2.2439 23.8483 2.2128 23.874 2.17188C23.9 2.13036 23.913 2.07981 23.9131 2.02051C23.9131 1.96186 23.9004 1.91089 23.875 1.86816C23.8496 1.82518 23.8135 1.79243 23.7666 1.76953C23.72 1.74637 23.6647 1.7344 23.6006 1.73438H23.2461ZM24.4873 1.73438V2.59277H25.085V2.42383H24.6943V2.24707H25.0547V2.0791H24.6943V1.90234H25.085V1.73438H24.4873ZM25.6758 1.73438V2.59277H25.8828V2.32617H26.0234C26.089 2.32617 26.1456 2.31336 26.1934 2.28906C26.2411 2.26477 26.2781 2.23063 26.3037 2.18652C26.3296 2.14217 26.3428 2.09035 26.3428 2.03125C26.3428 1.97238 26.3301 1.92035 26.3047 1.87598C26.2794 1.83152 26.2429 1.79726 26.1963 1.77246C26.1497 1.74733 26.0935 1.73438 26.0293 1.73438H25.6758ZM27.0537 1.73438L26.7637 2.59277H26.9863L27.043 2.41211H27.3398L27.3965 2.59277H27.6191L27.3291 1.73438H27.0537ZM28.1709 1.73438V2.59277H28.3789V2.29883H28.4854L28.6416 2.59277H28.8682L28.6895 2.26562C28.7369 2.24386 28.7739 2.21301 28.7998 2.17188C28.8257 2.13036 28.8388 2.07981 28.8389 2.02051C28.8389 1.96194 28.8262 1.91086 28.8008 1.86816C28.7755 1.82526 28.7391 1.79242 28.6924 1.76953C28.6458 1.74635 28.5897 1.73438 28.5254 1.73438H28.1709ZM29.665 1.73438L29.375 2.59277H29.5977L29.6543 2.41211H29.9512L30.0078 2.59277H30.2305L29.9404 1.73438H29.665ZM30.6475 1.73438V1.90234H30.9082V2.59277H31.1123V1.90234H31.373V1.73438H30.6475ZM31.9336 1.73438V2.59277H32.1416V1.73438H31.9336ZM34.1221 1.73438V2.59277H34.3301V2.09766H34.335L34.6768 2.59277H34.8525V1.73438H34.6455V2.22852H34.6387L34.3008 1.73438H34.1221ZM7.74707 1.9043C7.78845 1.9043 7.82421 1.91474 7.85352 1.93457C7.88286 1.95434 7.9053 1.98324 7.9209 2.02148C7.9368 2.05996 7.94529 2.10735 7.94531 2.16309C7.94531 2.21888 7.93679 2.26617 7.9209 2.30469C7.90526 2.34318 7.88304 2.37275 7.85352 2.39258C7.82421 2.41241 7.78845 2.42188 7.74707 2.42188C7.70622 2.42184 7.67109 2.41228 7.6416 2.39258C7.61195 2.37274 7.58917 2.34323 7.57324 2.30469C7.5577 2.26618 7.5498 2.21887 7.5498 2.16309C7.54983 2.10735 7.55768 2.05996 7.57324 2.02148C7.58917 1.9831 7.61203 1.95434 7.6416 1.93457C7.67113 1.91477 7.70613 1.90433 7.74707 1.9043ZM33.1318 1.9043C33.1731 1.90432 33.208 1.91479 33.2373 1.93457C33.2669 1.95437 33.2901 1.98303 33.3057 2.02148C33.3216 2.05996 33.3291 2.10735 33.3291 2.16309C33.3291 2.21881 33.3215 2.2662 33.3057 2.30469C33.2901 2.34323 33.267 2.37274 33.2373 2.39258C33.2081 2.41227 33.173 2.42185 33.1318 2.42188C33.0907 2.42188 33.055 2.41241 33.0254 2.39258C32.9959 2.37275 32.9729 2.34315 32.957 2.30469C32.9415 2.26622 32.9336 2.21876 32.9336 2.16309C32.9336 2.10735 32.9414 2.05996 32.957 2.02148C32.9728 1.98316 32.996 1.95438 33.0254 1.93457C33.055 1.91474 33.0907 1.9043 33.1318 1.9043ZM12.2988 1.91113C12.3479 1.91113 12.3894 1.91914 12.4229 1.93555C12.4566 1.95174 12.4827 1.97876 12.5 2.01562C12.5172 2.05218 12.5254 2.10151 12.5254 2.16309C12.5254 2.22474 12.5173 2.27441 12.5 2.31152C12.483 2.34834 12.4573 2.37514 12.4238 2.3916C12.3906 2.40777 12.3497 2.41602 12.3018 2.41602H12.2002V1.91113H12.2988ZM19.0488 1.91113C19.0978 1.91117 19.1394 1.9191 19.1729 1.93555C19.2066 1.95175 19.2317 1.97882 19.249 2.01562C19.2663 2.0522 19.2754 2.10142 19.2754 2.16309C19.2754 2.22474 19.2663 2.27441 19.249 2.31152C19.232 2.34826 19.2063 2.37517 19.1729 2.3916C19.1398 2.4076 19.0994 2.41597 19.0518 2.41602H18.9492V1.91113H19.0488ZM29.8057 1.9502L29.9014 2.25488H29.7031L29.7988 1.9502H29.8057ZM27.1943 1.9502L27.29 2.25488H27.0918L27.1875 1.9502H27.1943ZM16.4443 1.9502L16.54 2.25488H16.3428L16.4385 1.9502H16.4443ZM25.9854 1.90137C26.0161 1.90142 26.0423 1.90643 26.0635 1.91699C26.0846 1.92761 26.1004 1.94334 26.1113 1.96289C26.1222 1.9821 26.1279 2.00484 26.1279 2.03125C26.1279 2.05751 26.1222 2.08075 26.1113 2.10059C26.1004 2.12008 26.0846 2.1356 26.0635 2.14648C26.0426 2.15732 26.0164 2.16206 25.9854 2.16211H25.8828V1.90137H25.9854ZM22.3262 1.90137C22.357 1.9014 22.3831 1.90646 22.4043 1.91699C22.4255 1.92761 22.4413 1.94334 22.4521 1.96289C22.463 1.98212 22.4687 2.00479 22.4688 2.03125C22.4688 2.05751 22.463 2.08075 22.4521 2.10059C22.4413 2.12004 22.4255 2.13562 22.4043 2.14648C22.3834 2.15731 22.3573 2.16208 22.3262 2.16211H22.2236V1.90137H22.3262ZM28.4805 1.90137C28.5115 1.90137 28.5383 1.90611 28.5596 1.91504C28.5806 1.92367 28.5966 1.93668 28.6074 1.9541C28.6183 1.97142 28.624 1.99398 28.624 2.02051C28.624 2.04669 28.6181 2.06806 28.6074 2.08496C28.5966 2.10165 28.5807 2.11467 28.5596 2.12305C28.5387 2.13114 28.5118 2.13574 28.4805 2.13574H28.3789V1.90137H28.4805ZM23.5557 1.90137C23.5866 1.90138 23.6126 1.90614 23.6338 1.91504C23.6549 1.92365 23.6707 1.93668 23.6816 1.9541C23.6925 1.97142 23.6982 1.99398 23.6982 2.02051C23.6982 2.04677 23.6924 2.06804 23.6816 2.08496C23.6707 2.10172 23.655 2.11467 23.6338 2.12305C23.6129 2.13112 23.5868 2.13573 23.5557 2.13574H23.4531V1.90137H23.5557ZM9.04785 1.90137C9.07877 1.90137 9.10483 1.90612 9.12598 1.91504C9.14708 1.92364 9.16294 1.93668 9.17383 1.9541C9.18472 1.97142 9.19043 1.99398 9.19043 2.02051C9.19037 2.04677 9.18461 2.06804 9.17383 2.08496C9.16293 2.10172 9.14722 2.11467 9.12598 2.12305C9.1051 2.13113 9.07904 2.13574 9.04785 2.13574H8.94531V1.90137H9.04785Z" fill="white"/>
<path d="M11.3641 13.5594H8.37891V12.5892C8.52815 12.216 9.94615 11.0965 9.79691 9.90234C10.8119 10.4397 10.7422 11.9174 10.5433 12.5892L11.0657 11.9174C11.4388 11.9921 11.3641 13.037 11.3641 13.5594Z" fill="white"/>
<path d="M11.739 14.0078H8.08203L8.67907 15.202H11.1419L11.739 14.0078Z" fill="white"/>
<path d="M9.27511 16.0962L8.97656 15.6484H10.8424L10.4692 16.2455V18.7084H9.27511V16.0962Z" fill="white"/>
<path d="M11.5514 18.5234H8.36328V18.711H11.5514V18.5234Z" fill="white"/>
<path d="M27.0056 12.2573C27.5825 12.2573 28.0502 11.7896 28.0502 11.2126C28.0502 10.6357 27.5825 10.168 27.0056 10.168C26.4286 10.168 25.9609 10.6357 25.9609 11.2126C25.9609 11.7896 26.4286 12.2573 27.0056 12.2573Z" fill="white"/>
<path d="M29.5932 13.9322C27.086 11.9821 24.9669 13.1197 24.2207 13.9322C25.8524 14.6883 26.7246 15.8391 26.9567 16.3199C27.0527 15.7588 28.6812 14.5291 29.5932 13.9322Z" fill="white"/>
<path d="M26.9072 17.604C26.5093 16.3703 24.42 15.1665 23.4251 14.7188L22.8281 15.8629C25.3247 17.0799 25.5167 17.8481 25.6636 18.3502H28.1092C28.348 17.1961 30.207 16.178 31.0858 15.8629L30.4889 14.7188C27.9419 15.7933 27.0399 17.09 26.9072 17.604Z" fill="white"/>
<path d="M12.4119 28.3585C12.4712 28.2598 12.4777 28.1906 12.4777 27.5681C12.4777 26.9391 12.481 26.8831 12.5337 26.8831C12.5667 26.8798 12.6326 26.9094 12.682 26.9489C12.7348 26.9852 12.7973 27.0609 12.8237 27.1136C12.8633 27.1927 12.8731 27.3639 12.8731 27.9699C12.8731 28.5759 12.8633 28.7471 12.8237 28.8262C12.7973 28.8822 12.7348 28.9547 12.682 28.9909C12.6326 29.0304 12.5437 29.0699 12.369 29.1061L12.3921 29.4289C12.4086 29.6956 12.4053 29.7516 12.3624 29.7648C12.3328 29.7747 12.1548 29.6429 11.4893 29.0567H9.72656L10.2109 28.5627H11.1631C11.9374 28.5627 12.1384 28.5529 12.2306 28.5133C12.2933 28.487 12.3756 28.4145 12.4119 28.3585Z" fill="white"/>
<path d="M8.88987 29.5011C9.12366 29.5077 9.19635 29.5239 9.34449 29.6061C9.44331 29.6588 9.5589 29.7481 9.60173 29.8041C9.64456 29.8569 9.70069 29.9753 9.72704 30.0675C9.75669 30.1564 9.77945 30.3046 9.77621 30.3968C9.77621 30.4857 9.80242 30.6111 9.83207 30.677C9.86828 30.756 9.88173 30.845 9.8718 30.9733C9.86518 31.0721 9.8258 31.2204 9.78628 31.3027C9.74676 31.3817 9.638 31.5395 9.54249 31.6481C9.3909 31.826 9.37793 31.8559 9.39766 31.9613C9.40759 32.0239 9.44697 32.1161 9.48318 32.1654C9.51945 32.2148 9.59504 32.2806 9.65428 32.3102C9.71352 32.3399 9.88807 32.3891 10.0429 32.422C10.1944 32.455 10.366 32.4979 10.4221 32.521C10.4748 32.5408 10.5768 32.6166 10.7844 32.8241L11.0053 32.7715C11.1272 32.7419 11.2918 32.6892 11.3677 32.653C11.4432 32.6168 11.5484 32.551 11.598 32.5048C11.6737 32.4357 11.6902 32.3927 11.6902 32.1095L10.7682 32.1587L10.8342 32.0503C10.8704 31.991 10.9292 31.8856 10.9622 31.8132C10.9952 31.7407 11.0415 31.5823 11.0646 31.467C11.0843 31.3484 11.1306 31.1413 11.1636 31.0064C11.1932 30.868 11.2555 30.6831 11.2983 30.5941C11.3379 30.5019 11.4339 30.3668 11.5063 30.2945C11.5986 30.2057 11.6942 30.1463 11.8061 30.1166C11.9115 30.0871 12.0431 30.0806 12.1846 30.0937C12.3328 30.1069 12.435 30.1369 12.5206 30.1961C12.5899 30.2422 12.6923 30.3509 12.7517 30.4366C12.8076 30.5221 12.883 30.6635 12.916 30.749C12.9457 30.8347 13.0017 31.0722 13.0379 31.2764C13.0873 31.5496 13.1339 31.7109 13.3544 32.1519L12.4452 32.1095V32.2644C12.4452 32.3828 12.4648 32.4388 12.5206 32.4948C12.5601 32.5342 12.6689 32.6 12.7611 32.6395C12.85 32.679 13.0577 32.7482 13.2224 32.7877C13.3836 32.8305 13.5615 32.893 13.6178 32.9325C13.6705 32.9688 13.75 33.0581 13.7895 33.1306C13.829 33.2029 13.8615 33.2785 13.8616 33.3016C13.8616 33.3346 13.1203 33.3447 10.257 33.3447C6.84204 33.3447 6.65003 33.3412 6.66262 33.2855C6.67251 33.2525 6.68911 33.1832 6.699 33.1306C6.71217 33.0746 6.74822 32.9789 6.78116 32.9164C6.81082 32.8505 6.88693 32.7548 6.94953 32.6988C7.00892 32.6428 7.13419 32.5735 7.22634 32.5439C7.31545 32.5143 7.51621 32.465 7.67083 32.4321C7.82242 32.3992 7.99393 32.3431 8.04662 32.3068C8.09931 32.2706 8.16862 32.2015 8.20152 32.1587C8.23442 32.1126 8.27049 32.0238 8.28035 31.9613C8.29683 31.8592 8.28007 31.8231 8.14497 31.665C8.06262 31.5629 7.95738 31.4077 7.91131 31.3188C7.86518 31.2266 7.81876 31.0784 7.8089 30.9895C7.7958 30.8678 7.80938 30.7855 7.85876 30.677C7.90159 30.5782 7.92476 30.4562 7.92476 30.3146C7.92476 30.16 7.94414 30.0578 7.99345 29.959C8.03297 29.8833 8.11262 29.7746 8.17193 29.7186C8.23124 29.6659 8.35311 29.5899 8.44538 29.5536C8.57373 29.5043 8.66931 29.4912 8.88987 29.5011ZM8.91276 25.8521C9.2609 25.7148 11.7386 25.7149 11.9872 25.8588C12.0597 25.9083 12.1421 25.997 12.1684 26.0561C12.2046 26.1386 12.2142 26.3461 12.2142 27.0442C12.2142 27.8642 12.2108 27.9301 12.1482 28.0322C12.1119 28.0881 12.0331 28.167 11.9772 28.2032C11.875 28.2659 11.8092 28.2692 10.0894 28.2692L9.68724 28.6155C9.44683 28.8196 9.2589 28.9575 9.22593 28.9508C9.17331 28.9442 9.1669 28.9048 9.17676 28.6053C9.18338 28.2895 9.17987 28.2693 9.11752 28.2692C9.08124 28.2692 9.01828 28.2526 8.97876 28.2329C8.93593 28.213 8.86373 28.157 8.81104 28.1077C8.75511 28.055 8.70883 27.963 8.6858 27.8577C8.66276 27.759 8.65628 27.3899 8.6629 26.9189C8.67276 26.2612 8.68235 26.1289 8.73159 26.04C8.76124 25.9808 8.84359 25.895 8.91276 25.8521ZM11.8586 25.947C9.40724 25.9339 9.11373 25.9405 9.03469 25.9767C8.97869 26.003 8.91283 26.0558 8.88649 26.0986C8.84697 26.1612 8.8338 26.3292 8.82724 26.9021C8.82062 27.3004 8.82745 27.6923 8.83731 27.7749C8.8538 27.877 8.89331 27.9528 8.95587 28.0154C9.02828 28.0812 9.08421 28.1042 9.18283 28.1043C9.25531 28.1043 9.32456 28.1244 9.33773 28.1474C9.34759 28.1671 9.35787 28.2952 9.35455 28.4268C9.35131 28.5547 9.35766 28.6567 9.37076 28.6511C9.38718 28.6446 9.53883 28.5192 9.71014 28.371L10.0234 28.1043H11.8452L12.0499 27.9069V26.1612L11.8586 25.947Z" fill="white"/>
<path d="M12.1147 26.177V27.9563L11.8675 28.1874L10.0881 28.1375L9.26446 28.7801L9.21529 28.2366L8.78694 28.0392L8.75391 27.6108V26.177L9.13246 25.8807L11.8675 25.8477L12.1147 26.177ZM10.2666 27.1488C9.63729 27.1488 9.41673 27.159 9.39039 27.1886V27.1912C9.36729 27.211 9.35694 27.251 9.3668 27.2708C9.37708 27.3036 9.58853 27.3132 10.27 27.3132C10.83 27.3132 11.1659 27.2999 11.1758 27.2801C11.1855 27.2636 11.1725 27.2243 11.1496 27.198C11.1165 27.1519 10.9877 27.1455 10.2666 27.1488ZM10.4578 26.5622C9.51273 26.5557 9.37715 26.5626 9.35398 26.6053C9.34087 26.6348 9.34384 26.671 9.36342 26.6875C9.38322 26.7072 9.81832 26.717 10.4673 26.7104H10.474C11.5145 26.7039 11.5381 26.704 11.5381 26.6383C11.5381 26.5727 11.512 26.5727 10.4693 26.5629L10.4578 26.5622Z" fill="white"/>
<path d="M24.7773 26.3146C25.0593 26.1952 25.477 26.0191 25.7068 25.9222C25.9366 25.8266 26.1261 25.7475 26.1276 25.7461C26.1306 25.7461 26.5439 25.9177 27.0453 26.128C27.5481 26.3369 27.9703 26.5145 27.9823 26.522C27.9987 26.5309 27.9897 26.5398 27.945 26.5593C27.9122 26.5726 27.563 26.7189 27.169 26.8831C26.7752 27.0471 26.3828 27.2128 26.1395 27.3157L25.5577 27.074C25.2384 26.9412 24.822 26.7682 24.6326 26.6891C24.443 26.6115 24.2849 26.5429 24.2775 26.5384C24.2715 26.5339 24.4968 26.4324 24.7773 26.3146Z" fill="white"/>
<path d="M22.3734 33.1482C22.3629 33.1034 22.3555 32.9602 22.3555 32.7707V32.4648H24.8696L24.9368 32.6245C24.9741 32.7125 25.0203 32.805 25.0412 32.8289C25.0621 32.8528 25.0964 32.8811 25.1188 32.8915C25.1531 32.9079 25.3411 32.9124 26.1304 32.9124C26.8168 32.9124 27.1107 32.9079 27.1331 32.896C27.1525 32.887 27.1853 32.8617 27.2077 32.8393C27.2331 32.8169 27.2764 32.7334 27.3838 32.4648H29.9054V32.7707C29.9054 32.9602 29.898 33.1034 29.8875 33.1482C29.8755 33.1974 29.8487 33.2392 29.8009 33.2884C29.7592 33.3317 29.7114 33.363 29.6741 33.3735C29.6324 33.3854 28.6073 33.3899 26.1304 33.3899C23.6536 33.3899 22.6285 33.3854 22.5868 33.3735C22.5495 33.363 22.5017 33.3317 22.46 33.2884C22.4122 33.2392 22.3853 33.1974 22.3734 33.1482Z" fill="white"/>
<path d="M28.5484 28.1521C28.9731 28.1521 29.0644 28.157 29.1122 28.1763C29.142 28.1883 29.1867 28.2166 29.2091 28.2389C29.2331 28.2614 29.2648 28.3047 29.2812 28.3346C29.308 28.3898 29.3095 28.4537 29.3095 31.9869H28.2427C27.258 31.9869 27.1713 31.9887 27.122 32.0125C27.0907 32.0275 27.0546 32.0556 27.0412 32.0765C27.0262 32.0976 26.9862 32.186 26.8849 32.4348H25.3702L25.3029 32.2658C25.2628 32.1663 25.2198 32.083 25.1945 32.0604C25.1721 32.038 25.139 32.0121 25.1211 32.0032C25.0943 31.9912 24.7747 31.9869 22.9531 31.9869V30.1894C22.9531 28.4518 22.9546 28.3898 22.9814 28.3346C22.9978 28.3047 23.0295 28.2612 23.0535 28.2403C23.0759 28.218 23.1159 28.1896 23.1397 28.1777C23.1784 28.1568 23.2606 28.1536 24.2213 28.1521V28.4585C24.2213 28.6836 24.2273 28.7776 24.2422 28.8135C24.2526 28.8388 24.278 28.8764 24.2974 28.8943C24.317 28.9123 24.4168 28.966 24.5196 29.0121C24.6226 29.0569 24.7868 29.1221 24.8853 29.1549C24.9837 29.1877 25.1312 29.2298 25.2133 29.2492C25.2954 29.2686 25.4273 29.2952 25.5049 29.3072C25.5826 29.3205 25.7537 29.3385 25.8848 29.3489C26.0667 29.3623 26.1819 29.3623 26.3697 29.3489C26.5055 29.3399 26.6998 29.3176 26.8028 29.2997C26.9057 29.2818 27.07 29.2458 27.1685 29.2189C27.2669 29.192 27.4145 29.1443 27.4964 29.1145C27.5785 29.0832 27.7098 29.0299 27.7874 28.9926C27.8649 28.9569 27.9457 28.9123 27.9652 28.8943C27.9846 28.8764 28.01 28.8388 28.0204 28.8135C28.0353 28.7776 28.0413 28.6833 28.0413 28.1521H28.5484ZM23.8482 30.9424V31.4198H24.4604V30.9424H23.8482ZM25.012 30.9424V31.4198H28.4144V30.9424H25.012ZM23.8482 29.8681V30.3456H24.4604V29.8681H23.8482ZM25.012 29.8681V30.3456H28.4144V29.8681H25.012ZM27.5531 27.2422C27.559 27.2422 27.5638 27.5408 27.5638 28.5703L27.4864 28.606C27.4431 28.6254 27.3475 28.6628 27.2729 28.6882C27.1998 28.715 27.0611 28.7552 26.9671 28.7791C26.8731 28.8015 26.7176 28.8329 26.6236 28.8478C26.4968 28.8672 26.3685 28.8747 26.1313 28.8747C25.8986 28.8747 25.7628 28.8672 25.639 28.8478C25.545 28.8329 25.3895 28.8015 25.2955 28.7791C25.2015 28.7552 25.0466 28.709 24.9527 28.6747C24.8587 28.6389 24.7629 28.6016 24.6988 28.5703L24.7022 27.9049C24.7036 27.303 24.7062 27.2397 24.7271 27.2469C24.7405 27.2514 24.9017 27.3182 25.0867 27.3958C25.2717 27.4734 25.5691 27.5987 25.7481 27.6732C25.9733 27.7672 26.0895 27.8093 26.1313 27.8093C26.1746 27.8093 26.37 27.7346 26.8668 27.5258C27.2342 27.3716 27.5415 27.244 27.5531 27.2422Z" fill="white"/>
</g>
<defs>
<clipPath id="clip0_4001_1927">
<rect width="37" height="40" fill="white" transform="translate(0 0.921875)"/>
</clipPath>
</defs>
</svg>
