<svg width="165" height="165" viewBox="0 0 165 165" fill="none" xmlns="http://www.w3.org/2000/svg">
<rect width="165" height="165" rx="4" fill="#F7F7F7"/>
<path opacity="0.1" d="M107.5 111.091H104.333C101 111.091 97.8333 112.383 95.5 114.716L88.3749 121.758C85.1249 124.966 79.8334 124.966 76.5834 121.758L69.4583 114.716C67.125 112.383 63.9167 111.091 60.625 111.091H57.5C50.5833 111.091 45 105.549 45 98.7162V53.2577C45 46.4244 50.5833 40.8828 57.5 40.8828H107.5C114.417 40.8828 120 46.4244 120 53.2577V98.7162C120 105.508 114.417 111.091 107.5 111.091Z" fill="#292D32"/>
<path d="M83.3491 59.6888C82.8261 59.3798 82.1763 59.3798 81.6533 59.6888L66.5961 68.5863C65.5044 69.2314 65.5044 70.8109 66.5961 71.456L81.6533 80.3534C82.1763 80.6625 82.8261 80.6625 83.3491 80.3534L88.3347 77.4074V75.8542L82.3347 71.3542C81.5983 70.8019 81.4491 69.7572 82.0013 69.0209C82.5536 68.2845 83.5983 68.1352 84.3347 68.6875L91.0013 73.6875C91.421 74.0023 91.668 74.4963 91.668 75.0209V75.4377L98.4063 71.456C99.498 70.8109 99.498 69.2314 98.4063 68.5863L83.3491 59.6888Z" fill="#292D32"/>
<path d="M82.9299 83.6265L88.3345 80.3838V82.1877C88.3345 83.1082 89.0807 83.8544 90.0012 83.8544C90.9217 83.8544 91.6678 83.1082 91.6678 82.1877V78.3838L92.9058 77.641C93.4612 77.3078 94.1678 77.7079 94.1678 78.3556V88.4935C94.1678 88.7408 94.0606 88.9729 93.8627 89.1212C92.6829 90.0045 88.2012 93.0505 82.5012 93.0505C76.8011 93.0505 72.3195 90.0045 71.1397 89.1212C70.9417 88.9729 70.8345 88.7408 70.8345 88.4935V78.3556C70.8345 77.7079 71.5412 77.3078 72.0966 77.641L82.0724 83.6265C82.3363 83.7849 82.666 83.7849 82.9299 83.6265Z" fill="#292D32"/>
</svg>
