<svg width="40" height="40" viewBox="0 0 40 40" fill="none" xmlns="http://www.w3.org/2000/svg">
<g clip-path="url(#clip0_8021_29636)">
<g clip-path="url(#clip1_8021_29636)">
<g clip-path="url(#clip2_8021_29636)">
<g clip-path="url(#clip3_8021_29636)">
<path d="M0.144531 20C0.144531 8.954 9.09853 0 20.1445 0C31.1895 0 40.1445 8.954 40.1445 20C40.1445 31.046 31.1895 40 20.1445 40C9.09853 40 0.144531 31.046 0.144531 20Z" fill="#7F1B28"/>
<path d="M27.1445 30H13.1445C12.3489 30 11.5858 29.6839 11.0232 29.1213C10.4606 28.5587 10.1445 27.7956 10.1445 27V11C10.1445 10.7348 10.2499 10.4804 10.4374 10.2929C10.625 10.1054 10.8793 10 11.1445 10H25.1445C25.4097 10 25.6641 10.1054 25.8516 10.2929C26.0392 10.4804 26.1445 10.7348 26.1445 11V23H30.1445V27C30.1445 27.7956 29.8285 28.5587 29.2659 29.1213C28.7032 29.6839 27.9402 30 27.1445 30ZM26.1445 25V27C26.1445 27.2652 26.2499 27.5196 26.4374 27.7071C26.625 27.8946 26.8793 28 27.1445 28C27.4097 28 27.6641 27.8946 27.8516 27.7071C28.0392 27.5196 28.1445 27.2652 28.1445 27V25H26.1445ZM14.1445 15V17H22.1445V15H14.1445ZM14.1445 19V21H22.1445V19H14.1445ZM14.1445 23V25H19.1445V23H14.1445Z" fill="white"/>
</g>
</g>
</g>
</g>
<defs>
<clipPath id="clip0_8021_29636">
<rect width="40" height="40" rx="20" fill="white"/>
</clipPath>
<clipPath id="clip1_8021_29636">
<rect width="40" height="40" rx="20" fill="white"/>
</clipPath>
<clipPath id="clip2_8021_29636">
<rect width="40" height="40" fill="white"/>
</clipPath>
<clipPath id="clip3_8021_29636">
<rect width="41" height="40" fill="white" transform="translate(-0.5)"/>
</clipPath>
</defs>
</svg>
