<svg width="40" height="40" viewBox="0 0 40 40" fill="none" xmlns="http://www.w3.org/2000/svg">
<g clip-path="url(#clip0_8021_29662)">
<g clip-path="url(#clip1_8021_29662)">
<g clip-path="url(#clip2_8021_29662)">
<g clip-path="url(#clip3_8021_29662)">
<path d="M0.144531 20C0.144531 8.954 9.09853 0 20.1445 0C31.1895 0 40.1445 8.954 40.1445 20C40.1445 31.046 31.1895 40 20.1445 40C9.09853 40 0.144531 31.046 0.144531 20Z" fill="#7F1B28"/>
<path d="M20.1445 15.001C22.2663 15.001 24.3011 15.8439 25.8014 17.3441C27.3017 18.8444 28.1445 20.8793 28.1445 23.001C28.1445 25.1227 27.3017 27.1576 25.8014 28.6579C24.3011 30.1581 22.2663 31.001 20.1445 31.001C18.0228 31.001 15.988 30.1581 14.4877 28.6579C12.9874 27.1576 12.1445 25.1227 12.1445 23.001C12.1445 20.8793 12.9874 18.8444 14.4877 17.3441C15.988 15.8439 18.0228 15.001 20.1445 15.001ZM20.1445 18.501L18.8215 21.181L15.8645 21.611L18.0045 23.696L17.4995 26.642L20.1445 25.251L22.7895 26.641L22.2835 23.696L24.4235 21.61L21.4665 21.18L20.1445 18.501ZM21.1445 10L26.1445 10.001V13.001L24.7805 14.139C23.65 13.5462 22.4158 13.1768 21.1455 13.051L21.1435 10H21.1445ZM19.1445 10V13.05C17.8739 13.1757 16.6394 13.5451 15.5085 14.138L14.1445 13.001V10.001L19.1445 10Z" fill="white"/>
</g>
</g>
</g>
</g>
<defs>
<clipPath id="clip0_8021_29662">
<rect width="40" height="40" rx="20" fill="white"/>
</clipPath>
<clipPath id="clip1_8021_29662">
<rect width="40" height="40" rx="20" fill="white"/>
</clipPath>
<clipPath id="clip2_8021_29662">
<rect width="40" height="40" fill="white"/>
</clipPath>
<clipPath id="clip3_8021_29662">
<rect width="41" height="40" fill="white" transform="translate(-0.5)"/>
</clipPath>
</defs>
</svg>
