<svg width="20" height="20" viewBox="0 0 20 20" fill="none" xmlns="http://www.w3.org/2000/svg">
<path d="M14.1654 12.7032V18.4295C14.1654 18.6596 13.9788 18.8462 13.7487 18.8462C13.6732 18.8462 13.5991 18.8257 13.5344 18.7868L9.9987 16.6654L6.46307 18.7868C6.26575 18.9052 6.00981 18.8412 5.89141 18.6439C5.85256 18.5791 5.83203 18.505 5.83203 18.4295V12.7032C4.30792 11.4815 3.33203 9.60403 3.33203 7.4987C3.33203 3.8168 6.3168 0.832031 9.9987 0.832031C13.6806 0.832031 16.6654 3.8168 16.6654 7.4987C16.6654 9.60403 15.6895 11.4815 14.1654 12.7032ZM9.9987 12.4987C12.7601 12.4987 14.9987 10.2602 14.9987 7.4987C14.9987 4.73728 12.7601 2.4987 9.9987 2.4987C7.23727 2.4987 4.9987 4.73728 4.9987 7.4987C4.9987 10.2602 7.23727 12.4987 9.9987 12.4987ZM9.9987 10.8321C8.15775 10.8321 6.66537 9.33962 6.66537 7.4987C6.66537 5.65775 8.15775 4.16537 9.9987 4.16537C11.8396 4.16537 13.3321 5.65775 13.3321 7.4987C13.3321 9.33962 11.8396 10.8321 9.9987 10.8321Z" fill="white"/>
</svg>
